<svg version="1.1" xmlns="http://www.w3.org/2000/svg" xmlns:xlink="http://www.w3.org/1999/xlink" width="2927.753" height="43.039" viewBox="0 0 2927.7532 43.039128">
<filter id="blur-filter" height="200%">
<feGaussianBlur in="SourceGraphic" stdDeviation="4" />
</filter>
<path d="M1504.962 21.202l-1.144 1.444-3.367-3.91c-.614-.925-1.33-.797-2.105-.12-1.102 1.46-2.205 2.906-3.308 
4.992l-1.984-.18c2.08-3.583 3.957-7.743 6.796-9.203 3.35.678 3.475 4.583 5.112 6.976zm-4.873-2.87l-3.425 5.465 
5.7 6.655 1.233 10.207h-3.36l-1.36-8.763c-2.453-2.803-7.68-4.932-7.315-8.42 2.66-4.446 5.243-9.93 8.286-9.25m-6.917 
6.825l1.293.21m-2.585 3.49l-.993 7.306-6.134 6.405 2.616 2.466 6.584-7.428 1.023-5.053m-11.156 10.795l3.218 3.067 
2.346.06m11.127-.03h6.075m-2.527-19.697l3.67 2.285.722.572c.69.335 1.405.47 
2.256-.54l-.12-1.054h-1.445l-.18.3-3.758-3.007m1.443-12.208l-9.022-.06.06-1.864c.208-.844.753-1.24 1.442-1.444l3.488-.06c.577.165 1.068.48 
1.324 1.203l.06 2.225m-6.21-.082l-.01 2.275c1.004-.36 2.018-.602 2.913-2.223m3.308.03l-.023 1.512c-1.586 3.47-4.168 
2.804-6.198.68m42.208-1.818l-9.02-.06.058-1.865c.208-.843.754-1.238 1.442-1.443l3.49-.06c.575.166 1.065.482 1.322 1.204l.06 
2.226m-6.21-.083l-.01 2.276c1.003-.36 2.018-.604 2.912-2.224m3.306.03l-.023 1.512c-1.586 3.472-4.168 2.805-6.198.68m-.538 
6.214l-4.93.542-.933-1.745 7.006-2.286c1.035-.108 3.698-.072 2.948 2.136l-1.325 1.923c-1.582-1.317-3.76 3.064-5.142 5.113l-2.164-.09 
3.428-5.474m-1.443.12l-3.247 5.262c-1.925 3.202 4.56 5.903 7.578 8.33l1.324 9.053h3.518l-1.804-10.345-5.593-6.586 3.548-5.383m-7.157 
2.647l1.204.15m-2.676-4.572l-3.55 3.61-1.112.12c-2.16 1.42.43 4.23 1.924 1.804v-.78l3.67-3.01m-.904 7.308l-.93 6.465-6.135 6.376 2.645 
2.437 6.406-7.158 1.203-5.114m-11.036 10.676l3.067 3.007h2.438m11.186.03l6.104.03m-42.724-18.49h9.104m2.436-.036h15.995m2.688-8.077l.013-9.215h-23.357m-6.018-.04h-1.198v9.4m0-1.047h1.123m3.82-.038l22.61-.037m.01 
2.288V12.88h2.96M1729.457 17.285l-1.143 1.444-4.52-3.198c-.345 1.328-2.272 4.386-3.13 6.01l-1.984-.18c2.08-3.582 
1.674-8.88 4.512-10.34 3.352.676 4.63 3.87 6.266 6.262zm-5.663-1.754l-1.5 6.2 2.293 
8.722 1.934 10.208h-3.36l-2.062-8.76c-1.74-5.217-5.06-6.848-3.91-10.49 1.306-4.124 2.96-11.067 6.004-10.388m-4.633 7.964l1.293.21m-2.47 
5.707l1.01 5.9-6.134 3.272 2.615 2.466 6.35-3.36m-9.665 2.378l3.802 3.65m7.83 3.137h6.074m-.953-23.615l3.237 3.084.72.572c.692.335 1.407.47 
2.257-.54l-.12-1.054-1.46.093-3.49-3.6m1.523-11.292l-9.022-.06.06-1.865c.208-.843.754-1.238 1.442-1.442l3.49-.06c.575.164 1.065.48 1.322 
1.202l.06 2.226m-6.21-.083l-.01 2.277c1.004-.36 2.018-.604 2.912-2.223m3.31.03l-.023 1.512c-1.586 3.472-4.168 
2.803-6.198.68m40.947-2.29l-9.023-.06.06-1.863c.208-.844.753-1.24 1.442-1.444l3.487-.06c.577.165 1.067.48 1.324 1.203l.06 
2.224m-6.21-.083l-.01 2.276c1.006-.36 2.02-.603 2.915-2.223m3.305.03l-.022 1.512c-1.587 3.47-4.168 2.803-6.2.68m.325 6.71l-4.7 2.484-.93-1.744 
5.63-4.52c1.034-.11 3.697-.073 2.947 2.135l-.414 2.09c-1.582-1.317-2.074 4.098-3.455 6.146l-2.165-.09 1.522-5.582m0 0l-2.785 5.492c-1.914 2.34 
1.615 7.388 3.515 10.747l2.492 8.7h3.516l-2.972-9.993-2.202-8.682 2.533-6.738m-8.254.265l-3.548 3.608-1.113.12c-2.16 1.422.43 4.23 1.925 
1.805v-.78l3.668-3.01m2.322 12.35l-6.953 4.19 2.15 2.85 6.55-3.868m-9.93 2.05l3.64 4.384m8.577 3.13l6.103.032m-39.83-20.558h9.104m2.437-.036h15.994m2.747-9.3l-.045-7.992-24.174-.234m-6.4 3.935v3.03m4.243 
1.427l23.555-.06m-.245 2.01l.01-3.78h2.96M1953.087 17.782l-1.142 1.443-4.397-3.693c-.344 1.328-1.197 4.964-2.054 6.587l-1.985-.18c1.336-3.912.598-9.46 3.436-10.92 3.35.678 4.505 4.368 6.14 6.76zm-5.54-2.25l-.426 6.362-1.892 8.19-1.66 10.29h-3.36l1.532-8.842c-.173-5.216-.737-4.357.278-9.956.938-5.173 
1.886-11.234 4.928-10.556m-7.806 22.927l1.895 2.118m-.798 5.99h6.074m5.63-22.836l2.905 3.29.723.57c.69.336 
1.405.472 2.256-.54l-.12-1.053-1.584-.03-3.037-3.68m.712-12.315l-9.022-.06.06-1.865c.208-.844.753-1.24 1.443-1.443l3.488-.06c.576.164 
1.065.48 1.322 1.202l.06 2.226m-6.21-.083l-.01 2.276c1.004-.36 2.018-.603 2.913-2.223m3.305.03l-.022 1.512c-1.587 
3.472-4.168 2.803-6.198.68m41.88-1.762l-9.02-.06.06-1.864c.208-.845.753-1.24 1.443-1.445l3.488-.06c.576.165 1.066.48 
1.323 1.203l.058 2.225m-6.21-.082l-.01 2.277c1.004-.36 2.02-.603 2.913-2.222m3.307.03l-.022 1.512c-1.586 3.472-4.167 2.803-6.197.68m.324 
6.712l-4.625 3.28-.93-1.745 5.554-5.317c1.033-.11 3.7-.073 2.947 2.135l-.414 2.09c-1.582-1.317-.077 4.662-1.457 6.71l-2.166-.09-.476-6.147m0 
0l-.99 6.698c-.714 3.172-.334 5.727-.495 9.168l-1.173 9.076h3.518l1.11-9.398 1.637-9.396.49-6.62m-8.088 1.09l-3.713 2.784-1.11.12c-2.163 
1.42.43 4.228 1.923 1.804v-.78l3.834-2.183m1.572 13.502l-1.756 1.53 1.406 1.73m-2.773-.66L1974.53 37m-.582 
5.34l6.104.032m-32.712-20.558l7.122.05m3.18-.086l17.96.085m.78-9.385l-.045-7.992-25.05-.292m-5.524 3.993v3.03m4.242 1.428l23.557-.06m-.302 3.015l.067-4.786h2.96m3.28 13.767s2.887 3.174 3.867 5.114c.317 1.695-4.937 4.82-4.937 4.82m-37.086-.122l-1.153-1.455 1.475-1.406m4.743-6.152s3.003 3.293 2.958 3.676c-.13 1.092-4.9 5.82-4.9 
5.82M2182.942 21.205l-1.143 1.443-3.773-3.193c-.613-.924-.787-.84-1.562-.165-1.566 3.133-2.062 3.872-2.392 
5.604l-1.985-.18c.418-2.953 1.58-9.19 4.42-10.65 3.35.678 4.796 4.75 6.433 7.142zm-5.532-1.962l-1.79 4.89 4.726 6.32.378 
6.85h-3.36l-.507-5.404c-1.24-1.24-2.783-2.31-2.783-2.31m1.548-5.46c-.247 2.976-3.11 8.592-3.11 8.592l-7.4 8.21-2.618-2.467 6.134-6.405 
2.014-8.473c.805-3.39 4.145-10.038 7.188-9.358m-16.266 25.015l3.217 3.067 2.347.06m10.272-3.387h6.073m-1.673-16.34l3.668 
2.285.722.572c.69.335 1.406.47 2.256-.54l-.12-1.054h-1.443l-.18.3-3.758-3.007m.615-13.198l-9.022-.06.06-1.865c.208-.844.754-1.24 
1.443-1.444l3.49-.06c.575.165 1.065.48 1.322 1.203l.06 2.225m-6.21-.08l-.01 2.275c1.004-.36 2.018-.603 2.913-2.223m3.308.03l-.022 
1.512c-1.586 3.473-4.168 2.805-6.198.68m40.946-2.24l-9.023-.06.06-1.865c.21-.845.755-1.24 1.443-1.445l3.488-.06c.576.165 1.066.48 
1.323 1.203l.058 2.225m-6.21-.082l-.01 2.277c1.005-.36 2.02-.604 2.914-2.223m3.307.03l-.024 1.512c-1.586 3.472-4.168 
2.803-6.198.68m-.1 7.38l-5.04 1.28-.932-1.746 6.45-3.7c1.033-.11 3.697-.073 2.946 2.135l-.658 2.603c-1.582-1.317-2.11 
3.312-3.49 5.36l-2.165-.09 1.774-5.72m.474 11.197s.23.1 3.25 2.528l-.5 5.9h3.517l.836-6.96-5.592-6.585 1.896-5.63m-3.67-.084l-3.434 
5.727-.777 8.348-6.134 6.375 2.645 2.436 6.406-7.16 3.07-10.012m-3.61-2.736l1.202.15m-4.436-4.082l-3.55 3.61-1.112.12c-2.16 1.42.43 
4.228 1.925 1.804v-.78l3.668-3.01m-6.99 20.5l3.066 3.01h2.436m8.547-3.36l6.104.032m-39.174-14.857l8.197-.25m2.435-.034h15.996m2.803-9.363l-.103-7.93-23.935.083m-6.64-.12v9.398m0-1.05h1.124m2.746-.2l23.685.128m.01 
1.353V12.88h2.958M2406.686 17.286l-1.143 1.443-4.52-3.198c-.345 1.33-2.272 4.387-3.13 6.01l-1.984-.18c.84-3.417 1.672-8.88 4.51-10.34 
3.353.677 4.63 3.87 6.266 6.263zm-5.664-1.758l-1.502 6.198 2.995 8.723 1.233 10.205h-3.36l-1.36-8.756m-3.986-13.083l2.038.376m-8.872 
15.785l3.802 3.65m8.41 3.712h6.073m-.952-23.615l3.238 3.083.72.572c.692.336 1.407.47 2.257-.54l-.12-1.053-1.46.093-3.49-3.6m1.522-11.29l-9.02-.06.06-1.865c.208-.845.753-1.24 
1.442-1.444l3.487-.06c.577.165 1.067.48 1.324 1.204l.06 2.224m-6.21-.08l-.01 2.273c1.004-.358 2.018-.6 2.912-2.22m3.308.03l-.023 
1.512c-1.586 3.472-4.168 2.803-6.198.68m40.946-2.288l-9.02-.06.058-1.864c.21-.845.754-1.24 1.443-1.444l3.49-.06c.574.164 1.064.48 
1.32 1.203l.06 2.224m-6.21-.083l-.01 2.277c1.004-.36 2.02-.603 2.913-2.223m3.307.03l-.022 1.512c-1.587 3.473-4.168 2.805-6.198.68m.323 
6.713l-4.7 2.484-.93-1.745 5.63-4.52c1.034-.11 3.697-.075 2.947 2.135l-.414 2.09c-1.582-1.318-.27 4.598-1.65 
6.646l-2.167-.09-.282-6.084m1.474 16.654l1.75 8.287h3.517l-1.804-10.344-1.565-7.83.728-7.24m-8.254.265l-3.55 3.61-1.113.12c-2.16 
1.42.432 4.227 1.926 1.803v-.78l3.668-3.008m-5.86 17.57l3.64 4.386m8.576 3.133l6.104.032m-39.83-20.558h9.106m2.437-.035l17.813.164m.928-9.467l-.045-7.99-24.176-.234m-6.398 
3.934v3.03m4.242 1.426l23.556-.06m-.244 2.01l.01-3.78h2.958m-30.186 11l.086 9.487-7.567 5.24-2.616-2.466 
6.714-3.852s-2.143-5.112-1.806-7.74c.55-4.283 2.984-12.142 6.027-11.464m33.127 11.463l-.61 8.972-8.464 
5.19-2.15-2.85 6.834-3.84-.135-7.074 1.154-7.162M2630.038 17.778l-1.143 1.444-4.396-3.693c-.346 1.327-1.198 4.965-2.057 
6.588l-1.983-.18c1.337-3.913.6-9.46 3.437-10.92 3.352.678 4.505 4.367 6.14 6.76zm-6.86 14.264l-2.658 
8.33h-3.36l1.71-5.512m5.628-19.33l-.427 6.363-.734 2.88m-7.244 9.17l3.037 3.98m-1.937 4.134h6.074m5.63-22.837l2.905 3.29.72.572c.693.335 
1.407.47 2.257-.54l-.122-1.054-1.58-.03-3.038-3.68m.71-12.316l-9.022-.06.06-1.864c.21-.844.755-1.24 1.444-1.444l3.488-.06c.576.164 1.066.48 
1.323 1.203l.06 2.225m-6.21-.083l-.01 2.275c1.005-.36 2.02-.602 2.914-2.223m3.306.03l-.023 1.513c-1.586 3.47-4.168 
2.804-6.198.68m41.88-1.763l-9.02-.06.06-1.864c.207-.844.753-1.24 1.442-1.444l3.488-.06c.576.166 1.066.48 1.323 1.203l.06 
2.226m-6.21-.084l-.01 2.275c1.004-.36 2.018-.602 2.913-2.222m3.307.03l-.022 1.512c-1.586 3.472-4.168 2.804-6.198.68m.324 
6.712l-4.625 3.28-.932-1.744 5.556-5.317c1.032-.11 3.697-.073 2.946 2.135l-.414 2.09c-1.582-1.316-.077 4.663-1.458 
6.71l-2.165-.09-.478-6.146m4.1-.472l-.49 6.62-.234 1.97s2.736 4.855 3.365 5.86c.55.878-8.047 5.89-8.047 5.89m0 0l-1.35 
5.074h3.518l1.987-7.82m-2.848-17.12s-.35 4.58-.99 6.697c-.887 2.942-.36 3.272 2.597 6.752l-4.848 3.945 2.15 2.848m-2.9-19.623l-3.714 
2.78-1.112.12c-2.16 1.423.432 4.23 1.925 1.806v-.78l3.835-2.18m-1.55 16.103l3.31 4.137m-1.45 4.02l6.105.032m-32.713-20.56l7.122.05m3.178-.086l17.963.086m.78-9.385l-.046-7.993-25.05-.292m-5.524 
3.993v3.03m4.24 1.426l23.558-.06m-.302 3.016l.067-4.785h2.958m-29.923 13.716s3.12 4.14 3.075 4.525c-.13 1.092-7.32 6.1-7.32 
6.1l-1.855-2.216 5.115-4.185c-4.482-3.01-4.38-1.58-3.364-7.18.937-5.17 1.885-11.233 4.928-10.554m29.333 19.833l.55-3.426m-34.064 
3.503l.894-3.724M2859.88 21.203l-1.142 1.443-3.772-3.194c-.612-.924-.787-.84-1.56-.165-1.567 3.132-2.064 3.873-2.394 
5.604l-1.985-.18c.42-2.95 1.58-9.19 4.42-10.65 3.35.678 4.797 4.75 6.433 7.142zm-7.322 2.928l4.726 6.322.38 6.85h-3.36l-.507-5.404c-1.24-1.24-6.733-2.815-6.733-6.788m7.283-5.87l-1.79 4.89m-1.192 5.607l-1.92 2.983-7.397 8.208-2.617-2.465 6.137-6.405 2.012-8.473c.805-3.392 4.145-10.038 7.188-9.358M2838.5 39.245l3.217 3.067 2.346.06m10.273-3.387h6.074m-1.672-16.34l3.67 2.285.72.57c.692.336 1.407.47 2.256-.54l-.12-1.054h-1.444l-.18.302-3.76-3.007M2860.5 8l-9.02-.06.06-1.864c.21-.844.754-1.238 1.443-1.443l3.49-.06c.575.164 1.065.48 1.322 1.202l.06 2.226m-6.21-.083l-.01 2.276c1.004-.36 2.02-.602 2.913-2.222m3.308.03l-.023 1.513c-1.587 3.472-4.17 2.804-6.2.68m40.947-2.243l-9.022-.06.06-1.865c.21-.844.755-1.238 1.443-1.443l3.49-.06c.575.165 1.065.48 1.32 1.203l.06 2.226m-6.208-.083l-.01 2.276c1.003-.36 2.017-.603 2.912-2.222m3.306.03l-.022 1.513c-1.586 3.472-4.168 2.803-6.198.68m-.102 7.38l-5.038 1.278-.932-1.743 6.45-3.7c1.034-.11 3.697-.073 2.947 2.135l-.66 2.603c-1.58-1.318-2.11 3.312-3.49 5.36l-2.164-.09 1.774-5.72m1.983 6.08l1.896-5.63m-7.19 5.747c-.586 4.44 4.013 5.1 7.032 7.527l-.5 5.9h3.518l.838-6.96-5.593-6.586m-1.775-5.714l-3.434 5.727-.776 8.347-6.134 6.375 2.646 2.435 6.405-7.157 1.673-3.935m-2.216-8.816l1.203.15m-4.436-4.08l-3.548 3.608-1.113.12c-2.162 1.42.43 4.23 1.924 1.804v-.782l3.67-3.008m-6.99 20.5l3.066 3.008h2.437m8.545-3.358l6.105.03m-39.176-14.855l8.197-.25m2.436-.035h15.995m2.805-9.36l-.103-7.93-23.935.08m-6.64-.12v9.4m0-1.05h1.124m2.747-.203l23.685.128m.01 1.354v-3.265h2.96M1635.442 16.46v-4.197h2.96m-25.58 1.947l22.61-.037m-27.553.074H1609m.075-8.352h-1.198v9.4m30.56-.146l.012-9.216h-23.356m4.658 17.292h15.996m-27.536.035h9.104m27.515 18.463l6.105.03m-20.807-4.004l3.07 3.007 2.2.934m.35-18.465l1.298 7.307-6.134 6.375 2.646 2.436 6.405-7.157-.254-3.137m-4.244-13.43l-3.053 3.94-1.113.12c-2.16 1.42.43 4.228 1.925 1.803v-.78l3.173-3.338m1.037 3.007l1.203.15m.63-3.128l-3.247 5.263c-.194 2.593 2.458 5.084 5.476 8.797l3.427 8.584h3.518l-2.97-9.76-4.427-7.17 3.053-5.713m-2.768-.572l-4.93.54-.933-1.744 7.007-2.286c1.033-.107 3.697-.072 2.946 2.136l-1.322 1.924c-1.582-1.317-3.266 3.395-4.646 5.443l-2.166-.09 2.932-5.803m7.9-8.78l-.023 1.512c-1.587 3.47-4.168 2.803-6.198.68m.01-2.275l-.01 2.276c1.003-.36 2.017-.603 2.912-2.223m5.954.03l-9.02-.06.06-1.865c.21-.844.754-1.24 1.443-1.444l3.488-.058c.577.163 1.067.48 1.323 1.2l.06 2.227m-32.872.208l-.022 1.514c-1.587 3.473-4.17 2.805-6.2.68m.012-2.275l-.01 2.275c1.003-.36 2.017-.603 2.912-2.222m5.954.028l-9.022-.06.06-1.864c.208-.843.755-1.238 1.443-1.442l3.488-.06c.576.163 1.066.48 1.323 1.2l.06 2.227m.06 13.654l3.667 2.285.722.57c.69.336 1.405.472 2.256-.54l-.122-1.053h-1.442l-.18.3-3.76-3.006m-4.69 21.14h6.074m-19.788-3.097l3.217 3.067 2.017.72m-.15-18.28l1.983 7.306-6.134 6.406 2.617 2.465 6.585-7.428-.35-2.183m-3.407-10.267l1.294.21m5.865-2.93l-3.425 5.464 4.103 7.453 2.83 9.41h-3.36l-2.958-7.964c-1.057-2.427-6.083-5.73-5.718-9.218 2.66-4.445 5.243-9.93 8.286-9.25m5.112 6.976l-1.14 1.444-3.62-4.157c-.612-.925-1.33-.797-2.103-.12-1.103 1.46-1.957 3.154-3.06 5.24l-1.985-.18c2.08-3.583 3.708-7.99 6.548-9.45 3.35.677 3.723 4.83 5.36 7.224zM1841.404 17.05l-1.143 1.442-4.52-3.197c-.344 1.33-2.27 4.388-3.13 6.012l-1.984-.18c2.083-3.583 1.676-8.88 4.514-10.342 3.352.677 4.628 3.87 6.265 6.264zm-5.66-1.753l-1.503 6.198.54 8.956.65 10.208h-3.36l-.777-8.76c-1.74-5.217-2.256-6.848-2.156-10.722 1.304-4.125 2.96-11.07 6.002-10.39m-4.633 7.966l1.293.21m-1.4 10.907l-4.44 3.038 2.615 2.466 2.962-1.9m-6.276.917l3.803 3.652m3.04 4.302h6.073m2.087-23.85l3.236 3.085.72.57c.692.336 1.407.47 2.256-.54l-.12-1.054-1.46.095-3.49-3.6m1.523-11.29l-9.023-.06.06-1.866c.208-.844.753-1.24 1.443-1.443l3.488-.06c.576.165 1.066.48 1.323 1.203l.06 2.226m-6.21-.084l-.01 2.276c1.004-.36 2.02-.604 2.913-2.223m3.306.027l-.023 1.513c-1.586 3.473-4.167 2.805-6.197.68m40.945-2.288l-9.02-.06.058-1.864c.21-.844.754-1.24 1.444-1.444l3.488-.06c.576.165 1.066.48 1.323 1.202l.06 2.226m-6.21-.082l-.01 2.276c1.003-.36 2.017-.603 2.91-2.223m3.308.03l-.02 1.512c-1.589 3.473-4.17 2.805-6.2.68m.323 6.71l-4.7 2.484-.93-1.745 5.63-4.52c1.034-.11 3.698-.072 2.947 2.136l-.414 2.09c-1.58-1.317-2.075 4.1-3.455 6.148l-2.166-.092 1.522-5.582m0-.002l-2.785 5.493c-.512 3.858.856 7.037 1.76 11.098l1.09 8.583h3.52l-1.22-9.76-.8-9.148 2.534-6.738m-8.254.265l-3.55 3.61-1.11.12c-2.163 1.42.43 4.228 1.923 1.803v-.78l3.67-3.01m1.5 13.285l-3.678 2.322 2.15 2.85 2.46-1.648m-5.84-.172l3.64 4.385m2.966 4.3l6.105.032M1834.3 21.58h9.106m2.436-.035h15.995m2.746-9.3l-.045-7.992-24.176-.233m-6.398 3.935v3.03m4.242 1.426l23.556-.06m-.243 2.01l.01-3.78h2.957m2.306 13.882s3.32 3.478 3.036 5.574c-.15 1.098-2.307 2.393-2.307 2.393m-33.21-8.184s2.97 3.18 2.705 5.08c-.154 1.096-2.305 2.392-2.305 2.392M2068.716 20.784l-1.14 1.444-3.773-3.194c-.614-.924-.79-.84-1.56-.165-1.568 3.13-2.064 3.872-2.394 5.603l-1.986-.18c.418-2.952 1.578-9.19 4.418-10.65 3.35.677 4.797 4.748 6.435 7.14zm-5.532-1.962l-1.79 4.89 4.725 6.322-3.753 5.363-2.368-1.49 2.137-3.255c-1.24-1.24-1.958-2.142-1.958-2.142m1.215-4.798c-.25 2.977-2.947 9.418-2.947 9.418l-4.753 7.547-2.617-2.466 4.813-6.9.526-8.143c.224-3.48 4.145-10.038 7.188-9.358m-13.458 25.183l3.217 3.068 2.346.06m2.833-7.187l3.925 2.81m5.102-15.515l3.67 2.286.72.57c.692.337 1.407.472 2.256-.54l-.12-1.052h-1.44l-.18.3-3.76-3.007m.615-13.202l-9.02-.06.06-1.865c.21-.843.754-1.238 1.443-1.443l3.488-.06c.578.165 1.067.48 1.324 1.204l.06 2.224m-6.21-.084l-.01 2.276c1.004-.36 2.02-.603 2.913-2.223m3.308.03l-.022 1.512c-1.587 3.473-4.17 2.805-6.2.68m40.946-2.24l-9.022-.06.06-1.865c.208-.844.753-1.238 1.442-1.443l3.488-.06c.576.164 1.066.48 1.323 1.202l.06 2.225m-6.208-.083l-.01 2.276c1.003-.36 2.018-.603 2.912-2.223m3.31.03l-.024 1.512c-1.587 3.472-4.17 2.805-6.198.68m-.103 7.38l-5.04 1.28-.932-1.745 6.45-3.702c1.035-.108 3.698-.072 2.948 2.136l-.66 2.603c-1.58-1.317-2.108 3.31-3.49 5.36l-2.164-.09 1.775-5.722m-.85 14.968l2.798 2.84 2.984-4.81-2.95-6.916 1.896-5.63m-3.67-.083l-3.433 5.727-.38 7.558-3.233 7.64 2.646 2.437 3.34-8.764 2.835-8.886m-3.607-2.736l1.203.15m-4.436-4.082l-3.548 3.61-1.113.12c-2.163 1.42.43 4.228 1.923 1.804v-.783l3.67-3.007m-3.695 20.98l3.068 3.006h1.502m1.564-8.667l3.45 3.542m-31.902-13.534l8.197-.247m2.436-.037h15.994m2.805-9.364l-.103-7.93-23.937.083m-6.64-.123v9.4m0-1.05h1.125m2.745-.2l23.685.126m.01 1.355v-3.264h2.96m1.693 16.31l-1.007 1.74M2295.188 21.928l-1.142 1.443-3.77-3.19c-.616-.927-.79-.842-1.563-.168-1.567 3.133-2.063 3.872-2.393 5.604l-1.985-.18c.42-2.953 1.58-9.19 4.42-10.65 3.35.678 4.796 4.748 6.433 7.14zm-5.532-1.963l-1.79 4.89 3.9 7.643 1.37 6.85h-3.36l-1.498-5.403c-1.24-1.24-1.958-3.63-1.958-3.63m1.546-5.46c-.247 2.976-2.78 10.08-2.78 10.08l-6.573 5.233-2.616-2.466 6.3-4.918.69-8.474c.284-3.475 4.147-10.04 7.19-9.36m-15.112 23.534l3.218 3.067 1.85.887m9.776-1.402h6.073m-1.835-17.663l3.667 2.285.723.57c.69.337 1.406.472 2.256-.54l-.12-1.052h-1.444l-.182.3-3.758-3.006m.616-13.202l-9.02-.06.06-1.865c.208-.843.753-1.238 1.443-1.443l3.487-.06c.576.164 1.066.48 1.323 1.202l.06 2.226m-6.21-.083l-.01 2.275c1.003-.36 2.017-.602 2.912-2.223m3.306.03l-.022 1.514c-1.586 3.473-4.168 2.804-6.198.68m40.945-2.24l-9.022-.06.06-1.865c.21-.844.754-1.24 1.444-1.444l3.488-.06c.576.166 1.066.48 1.323 1.204l.06 2.225m-6.21-.084l-.01 2.276c1.004-.36 2.02-.603 2.913-2.223m3.307.03l-.023 1.51c-1.586 3.473-4.167 2.805-6.198.682m-.1 7.38l-5.038 1.28-.933-1.745 6.45-3.7c1.033-.11 3.698-.074 2.947 2.133l-.66 2.603c-1.58-1.316-2.11 3.313-3.488 5.36l-2.166-.09 1.776-5.72m.804 11.862l1.43 3.85.988 5.897h3.52l-1.15-6.958-3.608-8.57 1.895-5.63m-3.67-.083l-3.433 5.728-.446 7.52-6.3 4.888 2.647 2.436 6.902-5.34 2.405-9.518m-3.61-2.736l1.204.15m-4.437-4.08l-3.55 3.607-1.11.12c-2.162 1.422.43 4.23 1.923 1.805v-.782l3.67-3.007m-6.826 18.188l3.068 3.007 1.94.66m8.876.28l6.105.03m-39.177-16.838l8.197-.247m2.436-.037h15.994m2.804-9.362l-.103-7.93-23.934.083m-6.64-.12v9.4m0-1.05h1.125m2.747-.204l23.685.128m.01 1.353v-3.263h2.958M2518.598 16.846l-1.142 1.444-4.52-3.198c-.346 1.33-2.273 4.388-3.13 6.012l-1.985-.18c.844-3.418 1.675-8.88 4.515-10.342 3.35.678 4.627 3.872 6.264 6.264zm-6.74 14.57l.532 9.27h-3.36l-.308-7.357m4.214-18.237l-1.502 6.197m-4.476-2.908l2.036.375m-7.053 14.96l3.804 3.65m3.318 5.005h6.075m2.32-24.083l3.236 3.084.72.57c.692.336 1.407.472 2.257-.54l-.12-1.053-1.46.095-3.49-3.6m1.52-11.292l-9.02-.06.058-1.864c.21-.845.756-1.24 1.444-1.445l3.488-.06c.578.165 1.067.48 1.325 1.203l.06 2.226m-6.21-.084l-.01 2.276c1.004-.36 2.018-.602 2.913-2.222m3.306.03l-.022 1.51c-1.586 3.474-4.167 2.806-6.198.682m40.946-2.29l-9.02-.06.06-1.864c.208-.843.754-1.238 1.442-1.442l3.488-.06c.577.164 1.067.48 1.324 1.202l.06 2.226m-6.212-.085l-.01 2.276c1.004-.36 2.018-.604 2.913-2.223m3.307.03l-.023 1.512c-1.588 3.47-4.17 2.802-6.2.68m.323 6.71l-4.7 2.485-.93-1.744 5.63-4.52c1.033-.108 3.697-.072 2.947 2.136l-.414 2.09c-1.582-1.318-.27 4.598-1.652 6.647l-2.164-.09-.283-6.084m3.37 6.765l.73-7.24m-3.57 17.673l-.06 6.8h3.517l-.325-8.528m-7.818-15.678l-3.55 3.608-1.112.12c-2.16 1.422.432 4.23 1.925 1.805v-.782l3.67-3.007m-4.044 16.58l3.643 4.385m4.003 3.18l6.105.03m-37.076-19.613h9.104m2.438-.036l17.812.166m.93-9.465l-.046-7.99-24.176-.234m-6.398 3.934v3.03m4.243 1.427l23.556-.06m-.242 2.01l.01-3.78h2.956m-30.183 11l1.906 8.66-7.57 5.24-2.616-2.466 5.887-4.016s-3.134-4.12-2.797-6.75c.55-4.28 2.984-12.14 6.028-11.463m33.125 11.465l1.567 7.83-8.822 5.34-2.15-2.85 6.01-3.678-1.128-6.245 1.155-7.162M2745.716 21.084l-1.143 1.443-3.77-3.193c-.613-.924-.788-.84-1.563-.165-1.565 3.132-2.06 3.87-2.39 5.603l-1.986-.18c.418-2.953 1.58-9.19 4.418-10.65 3.35.677 4.797 4.748 6.435 7.14zm-7.324 2.93l4.026 6.787-3.127 6.5-2.658-2.104 2.3-3.884c-1.24-1.24-6.033-2.348-6.033-6.32m7.282-5.87l-1.79 4.89m-1.193 5.608l-1.92 2.983-4.71 8.325-2.616-2.466 3.447-6.522 2.014-8.474c.806-3.39 4.146-10.036 7.19-9.358m-13.582 25.137l3.217 3.067 1.41.06m4.194-5.723l3.504 2.804m5.225-16.924l3.668 2.286.723.57c.69.336 1.405.47 2.255-.54l-.12-1.053h-1.444l-.18.3-3.76-3.007m.618-13.2l-9.022-.06.06-1.865c.21-.843.756-1.237 1.444-1.442l3.488-.06c.577.164 1.066.48 1.323 1.202l.06 2.226m-6.21-.084l-.01 2.275c1.003-.36 2.017-.602 2.912-2.223m3.308.03l-.022 1.514c-1.588 3.47-4.17 2.803-6.2.68m40.947-2.242l-9.023-.06.06-1.865c.21-.842.755-1.237 1.443-1.442l3.488-.06c.576.164 1.066.48 1.322 1.203l.06 2.226m-6.21-.084l-.01 2.276c1.005-.36 2.02-.602 2.914-2.222m3.308.03l-.023 1.51c-1.59 3.474-4.17 2.806-6.2.682m-.098 7.38l-5.04 1.28-.932-1.745 6.45-3.702c1.033-.108 3.698-.072 2.946 2.136l-.658 2.603c-1.582-1.318-2.11 3.31-3.49 5.36l-2.166-.09 1.776-5.722m1.985 6.083l1.895-5.63m-7.19 5.75c.817 4.44 3.08 4.748 6.098 7.76l-2.604 4.496 3.168 1.168 2.706-5.79-4.073-7.753m-1.775-5.712l-3.434 5.727-.777 8.346-3.095 6.26 2.646 2.436 3.366-7.042 1.674-3.934m-2.215-8.815l1.203.15m-4.435-4.082l-3.548 3.61-1.114.12c-2.16 1.42.43 4.228 1.925 1.803v-.78l3.67-3.01m-3.952 20.386l3.068 3.007h1.502m3.402-4.41l3.885 1.432m-33.917-15.09l8.196-.247m2.436-.036h15.994m2.804-9.363l-.103-7.93-23.935.082m-6.638-.122v9.4m0-1.05h1.124m2.746-.202l23.685.13m.01 1.352v-3.264h2.957M38.265 21.2l-1.143 1.444-3.368-3.91c-.614-.923-1.332-.795-2.105-.12-1.102 1.46-2.205 2.908-3.308 4.993l-1.985-.18c2.082-3.583 3.958-7.742 6.797-9.203 3.35.68 3.475 4.584 5.113 6.977zm-4.872-2.87l-3.424 5.464 5.7 6.656L36.9 40.657h-3.36l-1.36-8.76c-2.454-2.804-7.68-4.934-7.315-8.422 2.66-4.445 5.242-9.93 8.285-9.25m-6.917 6.826l1.295.21m-2.59 3.49l-.99 7.308-6.135 6.405 2.616 2.466 6.586-7.43 1.022-5.05M16.882 39.244l3.217 3.067 2.345.06m11.125-.035h6.076M37.12 22.64l3.67 2.286.72.57c.69.336 1.406.472 2.256-.54l-.12-1.053h-1.444l-.18.3-3.76-3.006m1.446-12.21l-9.023-.06.06-1.863c.21-.845.755-1.24 1.444-1.444l3.487-.06c.576.164 1.066.48 1.323 1.203l.06 2.224m-6.21-.08l-.01 2.275c1.005-.36 2.02-.603 2.914-2.223m3.305.03l-.022 1.51c-1.588 3.473-4.17 2.804-6.2.682m42.208-1.82l-9.02-.06.06-1.864c.208-.844.754-1.238 1.442-1.443l3.49-.06c.575.164 1.065.48 1.322 1.203l.06 2.225m-6.21-.083l-.01 2.276c1.005-.36 2.02-.603 2.914-2.223m3.306.03l-.022 1.512c-1.586 3.473-4.167 2.805-6.198.68m-.538 6.215l-4.933.54-.932-1.743 7.006-2.286c1.033-.107 3.698-.07 2.947 2.137L66.41 18.34c-1.582-1.316-3.762 3.065-5.142 5.114l-2.166-.09 3.428-5.474m-1.442.122l-3.247 5.262c-1.926 3.2 4.557 5.903 7.576 8.33l1.324 9.05h3.517l-1.804-10.343-5.593-6.585 3.548-5.383m-7.156 2.648l1.202.15m-2.674-4.57l-3.55 3.607-1.112.12c-2.16 1.422.43 4.23 1.925 1.805v-.782l3.668-3.007m-.9 7.308l-.934 6.466-6.134 6.376 2.647 2.436 6.404-7.158 1.203-5.113M49.96 39.304l3.067 3.007h2.436m11.187.03l6.104.03M30.03 23.88h9.105m2.437-.036h15.994m2.688-8.075l.013-9.217H36.91m-6.018-.04h-1.198v9.4m0-1.048h1.123m3.82-.038l22.61-.037m.01 2.29v-4.2h2.958M262.76 17.284l-1.143 1.443-4.52-3.197c-.346 1.328-2.273 4.386-3.13 6.01l-1.985-.18c2.082-3.582 1.674-8.88 4.513-10.34 3.35.676 4.628 3.87 6.264 6.263zm-5.663-1.754l-1.502 6.198 2.293 8.722 1.936 10.208h-3.36l-2.063-8.76c-1.738-5.217-5.058-6.847-3.907-10.488 1.304-4.125 2.96-11.07 6.003-10.39m-4.634 7.964l1.293.21m-2.47 5.707l1.01 5.9-6.134 3.273 2.617 2.467 6.352-3.36m-9.67 2.376l3.803 3.65m7.83 3.134h6.075m-.952-23.615l3.236 3.084.722.57c.69.336 1.406.47 2.256-.54l-.12-1.053-1.46.094-3.49-3.598m1.52-11.293l-9.02-.06.06-1.865c.21-.845.754-1.24 1.443-1.444l3.49-.06c.575.165 1.065.48 1.322 1.204l.06 2.225m-6.21-.084l-.01 2.276c1.003-.36 2.017-.603 2.912-2.223m3.307.03l-.02 1.51c-1.59 3.473-4.17 2.806-6.2.682m40.947-2.287l-9.02-.06.06-1.865c.208-.845.754-1.24 1.443-1.444l3.488-.06c.577.164 1.067.48 1.324 1.203l.06 2.223m-6.21-.082l-.01 2.277c1.005-.36 2.02-.602 2.914-2.222m3.306.03l-.02 1.513c-1.59 3.47-4.17 2.803-6.2.68m.323 6.71l-4.7 2.485-.93-1.745 5.63-4.518c1.034-.11 3.698-.074 2.947 2.134l-.414 2.09c-1.582-1.317-2.075 4.097-3.455 6.147l-2.165-.09 1.52-5.583m0 0l-2.784 5.493c-1.914 2.337 1.615 7.387 3.516 10.746l2.49 8.7h3.52l-2.973-9.993-2.203-8.68 2.533-6.74m-8.255.266l-3.547 3.608-1.113.12c-2.16 1.42.43 4.228 1.924 1.804v-.78l3.67-3.01m2.32 12.35l-6.953 4.19 2.15 2.852 6.55-3.87m-9.93 2.05l3.64 4.385m8.576 3.132l6.104.03m-39.83-20.557h9.104m2.44-.036h15.992m2.748-9.302l-.047-7.992-24.174-.233m-6.4 3.934v3.03m4.242 1.427l23.557-.06m-.245 2.01l.008-3.78h2.96M486.387 17.78l-1.143 1.442-4.397-3.693c-.345 1.326-1.197 4.964-2.055 6.587l-1.985-.18c1.338-3.912.6-9.458 3.44-10.92 3.35.68 4.502 4.368 6.14 6.76zm-5.54-2.252l-.426 6.363-1.892 8.192-1.66 10.29h-3.36l1.532-8.844c-.174-5.215-.738-4.356.277-9.955.938-5.173 1.886-11.234 4.93-10.555m-7.806 22.926l1.896 2.118m-.8 5.99h6.073m5.63-22.834l2.904 3.29.722.572c.69.335 1.406.47 2.256-.54l-.12-1.054-1.583-.03-3.038-3.682m.71-12.313l-9.02-.06.06-1.864c.21-.844.755-1.24 1.443-1.444l3.488-.06c.577.164 1.067.48 1.324 1.203l.06 2.225m-6.21-.082l-.01 2.276c1.003-.36 2.018-.602 2.912-2.222m3.306.03l-.022 1.51c-1.586 3.474-4.168 2.806-6.198.682m41.882-1.762l-9.022-.06.06-1.865c.21-.843.756-1.238 1.444-1.443l3.488-.06c.577.164 1.066.48 1.324 1.203l.06 2.225m-6.21-.083l-.01 2.275c1.004-.36 2.017-.602 2.913-2.222m3.31.03l-.024 1.512c-1.586 3.472-4.167 2.804-6.198.68m.324 6.712l-4.623 3.28-.932-1.744 5.556-5.317c1.033-.11 3.698-.072 2.947 2.135l-.414 2.09c-1.583-1.316-.078 4.663-1.46 6.71l-2.164-.09-.476-6.147m0 .003l-.99 6.696c-.714 3.172-.33 5.727-.494 9.17l-1.172 9.073h3.52l1.108-9.397 1.636-9.398.49-6.62m-8.086 1.094l-3.714 2.783-1.112.12c-2.163 1.42.43 4.23 1.923 1.804v-.78l3.834-2.18m1.573 13.502l-1.755 1.527 1.406 1.733m-2.773-.66l2.443 2.816m-.582 5.34l6.104.032m-32.712-20.558l7.122.05m3.18-.086l17.962.085m.778-9.385l-.045-7.992-25.05-.293m-5.524 3.993v3.03m4.244 1.428l23.556-.06m-.303 3.014l.066-4.785h2.96m3.28 13.767s2.89 3.174 3.87 5.113c.315 1.696-4.94 4.82-4.94 4.82m-37.083-.12l-1.155-1.456 1.475-1.408m4.74-6.154s3.006 3.293 2.96 3.676c-.13 1.092-4.9 5.82-4.9 5.82M716.244 21.203l-1.143 1.444-3.77-3.193c-.614-.925-.79-.84-1.562-.167-1.566 3.133-2.062 3.873-2.393 5.604l-1.985-.18c.42-2.95 1.58-9.19 4.42-10.65 3.35.68 4.796 4.75 6.433 7.143zm-5.535-1.962l-1.79 4.89 4.726 6.322.38 6.85h-3.36l-.507-5.404c-1.24-1.24-2.784-2.307-2.784-2.307m1.546-5.46c-.248 2.974-3.11 8.59-3.11 8.59l-7.4 8.21-2.618-2.465 6.134-6.405 2.013-8.474c.807-3.393 4.148-10.04 7.19-9.36m-16.266 25.018l3.217 3.068 2.347.06m10.272-3.387h6.074m-1.672-16.34l3.67 2.285.72.572c.692.335 1.406.47 2.256-.54l-.12-1.054h-1.443l-.18.3-3.76-3.007m.617-13.2l-9.02-.06.06-1.863c.208-.845.753-1.24 1.442-1.445l3.49-.06c.575.165 1.065.48 1.32 1.203L714.217 8m-6.21-.082l-.01 2.276c1.003-.36 2.018-.603 2.912-2.223m3.307.03l-.02 1.513c-1.588 3.473-4.17 2.805-6.2.68m40.945-2.24l-9.022-.06.06-1.865c.21-.844.755-1.238 1.444-1.443l3.488-.06c.576.164 1.066.48 1.323 1.202l.06 2.226m-6.21-.083l-.01 2.276c1.005-.36 2.02-.603 2.914-2.223m3.306.03l-.022 1.512c-1.585 3.473-4.167 2.805-6.197.68m-.1 7.38l-5.04 1.28L734 17.06l6.452-3.7c1.033-.11 3.697-.074 2.946 2.134l-.66 2.603c-1.58-1.317-2.108 3.312-3.49 5.36l-2.164-.09 1.776-5.72m.474 11.2s.23.1 3.247 2.526l-.498 5.9h3.518l.837-6.96-5.593-6.585 1.896-5.63m-3.67-.083l-3.434 5.727-.776 8.346-6.134 6.375 2.645 2.436 6.406-7.158 3.068-10.014m-3.61-2.736l1.203.15M734 17.06l-3.548 3.61-1.112.12c-2.162 1.42.43 4.228 1.924 1.804v-.783l3.67-3.006m-6.993 20.502l3.07 3.006h2.436m8.545-3.355l6.105.03M708.92 24.13l8.197-.247m2.436-.037h15.994m2.804-9.362l-.102-7.93-23.935.083m-6.64-.122v9.4m0-1.05h1.125m2.746-.2l23.685.126m.007 1.356v-3.264h2.96M939.984 17.283l-1.14 1.443-4.522-3.197c-.345 1.327-2.272 4.386-3.13 6.01l-1.984-.18c.842-3.418 1.674-8.88 4.513-10.342 3.352.678 4.628 3.87 6.265 6.265zm-5.662-1.753l-1.5 6.198 2.993 8.722 1.234 10.206h-3.36l-1.36-8.76m-3.986-13.077l2.037.375m-8.87 15.784l3.802 3.65m8.41 3.71h6.073m-.953-23.615l3.236 3.085.722.572c.69.335 1.406.47 2.257-.54l-.122-1.054-1.458.093-3.49-3.596m1.52-11.294l-9.02-.06.06-1.865c.21-.843.755-1.24 1.443-1.443l3.488-.06c.576.164 1.066.48 1.323 1.203l.06 2.225m-6.21-.083l-.01 2.276c1.004-.36 2.018-.603 2.913-2.222m3.308.03l-.02 1.513c-1.59 3.472-4.17 2.803-6.2.68m40.947-2.288l-9.022-.06.06-1.865c.21-.844.756-1.238 1.444-1.443l3.487-.06c.576.164 1.066.48 1.323 1.202l.06 2.225m-6.21-.083l-.01 2.276c1.004-.36 2.018-.603 2.913-2.223m3.308.03l-.02 1.512c-1.59 3.473-4.17 2.805-6.2.68m.324 6.712l-4.7 2.484-.93-1.744 5.63-4.52c1.033-.11 3.697-.073 2.946 2.133l-.413 2.09c-1.582-1.317-.27 4.598-1.652 6.648l-2.165-.09-.283-6.083m1.474 16.654l1.75 8.288h3.518l-1.804-10.346-1.566-7.83.73-7.24m-8.255.267l-3.55 3.607-1.112.12c-2.16 1.422.432 4.23 1.925 1.805v-.782l3.67-3.007m-5.862 17.57l3.642 4.386m8.574 3.132l6.103.03m-39.83-20.558h9.104m2.437-.036l17.813.165m.928-9.466l-.047-7.99-24.173-.235m-6.4 3.935v3.03m4.242 1.426l23.557-.06m-.245 2.01l.01-3.78h2.958m-30.184 11l.087 9.487-7.568 5.24-2.615-2.466 6.713-3.85s-2.143-5.114-1.806-7.744c.55-4.28 2.984-12.14 6.027-11.462M966.85 22.48l-.61 8.973-8.462 5.19-2.152-2.85 6.835-3.842-.137-7.072 1.155-7.162M1163.341 17.778l-1.14 1.443-4.398-3.692c-.344 1.328-1.197 4.966-2.054 6.59l-1.985-.18c1.337-3.913.6-9.46 3.438-10.92 3.352.678 4.505 4.367 6.142 6.76zm-6.857 14.263l-2.66 8.333h-3.36l1.71-5.514m5.63-19.332l-.427 6.364-.736 2.88m-7.245 9.172l3.04 3.978m-1.94 4.135h6.074m5.628-22.836l2.906 3.292.722.57c.69.338 1.406.473 2.256-.54l-.12-1.052-1.584-.03-3.036-3.682m.71-12.314l-9.022-.06.06-1.865c.208-.846.753-1.24 1.442-1.445l3.488-.06c.577.164 1.067.48 1.324 1.203l.06 2.225m-6.21-.082l-.012 2.277c1.005-.36 2.02-.603 2.914-2.223m3.305.03l-.02 1.512c-1.587 3.473-4.17 2.805-6.2.68m41.882-1.763l-9.023-.06.058-1.864c.21-.845.756-1.24 1.444-1.445l3.488-.06c.578.165 1.068.48 1.325 1.204l.06 2.224m-6.212-.083l-.01 2.277c1.005-.36 2.02-.603 2.914-2.223m3.307.03l-.023 1.512c-1.585 3.473-4.167 2.805-6.197.68m.323 6.712l-4.623 3.28-.933-1.743 5.556-5.318c1.033-.108 3.697-.072 2.947 2.136l-.414 2.09c-1.583-1.318-.078 4.662-1.46 6.71l-2.165-.09-.476-6.148m4.098-.472l-.49 6.62-.234 1.97s2.736 4.856 3.366 5.86c.55.878-8.046 5.89-8.046 5.89m0 0l-1.35 5.075h3.517l1.988-7.82m-2.848-17.122s-.35 4.58-.99 6.697c-.888 2.942-.36 3.272 2.597 6.752l-4.848 3.944 2.15 2.85m-2.9-19.625l-3.714 2.782-1.112.12c-2.16 1.42.43 4.23 1.925 1.804v-.78l3.833-2.18m-1.55 16.102l3.31 4.138m-1.45 4.022l6.104.03m-32.712-20.558l7.122.05m3.18-.086l17.963.086m.778-9.385l-.045-7.993-25.05-.292m-5.524 3.992v3.03m4.24 1.428l23.556-.06m-.302 3.015l.067-4.786h2.96m-29.925 13.715s3.12 4.14 3.075 4.524c-.13 1.092-7.32 6.098-7.32 6.098l-1.857-2.214 5.116-4.187c-4.482-3.006-4.38-1.576-3.365-7.175.937-5.173 1.885-11.234 4.928-10.556m29.334 19.832l.55-3.424m-34.063 3.503l.894-3.724M1393.184 21.203l-1.143 1.443-3.77-3.193c-.614-.924-.788-.84-1.562-.165-1.566 3.132-2.062 3.87-2.393 5.603l-1.984-.18c.42-2.952 1.58-9.19 4.42-10.65 3.35.678 4.796 4.75 6.434 7.142zm-7.324 2.928l4.727 6.322.38 6.85h-3.36l-.507-5.405c-1.24-1.24-6.734-2.814-6.734-6.788m7.284-5.87l-1.79 4.89m-1.19 5.607l-1.92 2.983-7.4 8.21-2.615-2.466 6.134-6.406 2.012-8.473c.806-3.392 4.147-10.038 7.19-9.36m-16.268 25.02l3.217 3.067 2.347.06m10.272-3.387h6.073m-1.67-16.34l3.666 2.285.722.572c.69.335 1.406.47 2.256-.54l-.12-1.054h-1.443l-.18.3-3.76-3.007M1393.8 8l-9.02-.06.058-1.863c.21-.845.754-1.24 1.444-1.444l3.488-.06c.576.164 1.066.48 1.323 1.202l.06 2.225m-6.21-.083l-.01 2.276c1.003-.36 2.017-.602 2.912-2.222m3.306.03l-.02 1.513c-1.587 3.472-4.17 2.804-6.2.68m40.945-2.24l-9.02-.06.06-1.865c.208-.844.753-1.238 1.443-1.443l3.488-.06c.576.164 1.066.48 1.323 1.202l.058 2.225m-6.21-.082l-.01 2.276c1.003-.36 2.017-.602 2.912-2.223m3.307.03l-.022 1.514c-1.587 3.47-4.168 2.803-6.2.68m-.098 7.38l-5.04 1.277-.932-1.744 6.45-3.7c1.033-.108 3.698-.073 2.947 2.134l-.66 2.604c-1.58-1.317-2.108 3.312-3.488 5.36l-2.165-.09 1.774-5.72m1.983 6.08l1.896-5.63m-7.19 5.747c-.585 4.44 4.013 5.1 7.032 7.527l-.5 5.9h3.52l.836-6.96-5.593-6.584m-1.773-5.715l-3.433 5.728-.777 8.347-6.134 6.374 2.645 2.437 6.405-7.156 1.673-3.934m-2.213-8.816l1.202.15m-4.437-4.08l-3.548 3.607-1.112.12c-2.16 1.42.43 4.23 1.925 1.805v-.78l3.668-3.01m-6.99 20.503l3.067 3.006h2.436m8.546-3.356l6.105.03m-39.173-14.855l8.197-.25m2.435-.035h15.994m2.804-9.362l-.103-7.93-23.935.082m-6.64-.12v9.398m0-1.048h1.124m2.747-.202l23.685.127m.01 1.355V12.88h2.96M168.74 16.46v-4.2h2.958m-25.58 1.947l22.61-.037m-27.552.075h1.123m.073-8.352h-1.197v9.4m30.56-.146l.014-9.215h-23.358m4.66 17.292h15.997m-27.538.036h9.104m27.516 18.46l6.105.03M163.43 37.75l3.066 3.007 2.203.935m.347-18.468l1.298 7.307-6.134 6.373 2.647 2.437 6.405-7.157-.253-3.137m-4.247-13.43l-3.052 3.94-1.11.12c-2.163 1.42.43 4.228 1.923 1.804v-.78l3.173-3.34m1.037 3.008l1.202.15m.632-3.128l-3.248 5.263c-.195 2.593 2.456 5.084 5.474 8.797l3.426 8.584h3.518l-2.973-9.76-4.425-7.17 3.054-5.713m-2.765-.57l-4.934.54-.932-1.745 7.007-2.285c1.034-.107 3.7-.07 2.948 2.136l-1.323 1.925c-1.582-1.316-3.266 3.396-4.647 5.443l-2.165-.09 2.932-5.803m7.9-8.78l-.022 1.512c-1.586 3.47-4.168 2.803-6.198.68m.01-2.275l-.01 2.275c1.004-.36 2.018-.602 2.913-2.223m5.954.03l-9.022-.06.06-1.865c.21-.844.756-1.238 1.444-1.443l3.488-.06c.576.164 1.066.48 1.323 1.202l.06 2.225m-32.874.21l-.02 1.512c-1.587 3.473-4.17 2.805-6.2.68m.012-2.274l-.01 2.276c1.003-.36 2.018-.603 2.912-2.223m5.954.03l-9.022-.06.06-1.865c.21-.844.755-1.24 1.444-1.444l3.488-.06c.576.166 1.066.482 1.323 1.205l.06 2.225m.062 13.653l3.67 2.285.72.572c.692.335 1.406.47 2.256-.54l-.12-1.054h-1.444l-.18.3-3.76-3.007m-4.69 21.14h6.074m-19.79-3.098l3.218 3.068 2.015.72m-.147-18.283l1.982 7.307-6.135 6.406 2.617 2.466 6.585-7.428-.348-2.183m-3.408-10.266l1.293.21m5.863-2.93l-3.424 5.463 4.1 7.454 2.83 9.41h-3.36l-2.956-7.964c-1.058-2.428-6.084-5.73-5.72-9.218 2.66-4.445 5.244-9.93 8.287-9.25m5.114 6.976l-1.142 1.444-3.616-4.16c-.614-.922-1.332-.793-2.105-.12-1.102 1.462-1.956 3.157-3.06 5.24l-1.984-.18c2.082-3.58 3.71-7.988 6.548-9.45 3.352.68 3.724 4.834 5.36 7.226zM374.705 17.047l-1.143 1.444-4.52-3.196c-.346 1.328-2.273 4.387-3.13 6.01l-1.985-.18c2.08-3.582 1.673-8.88 4.512-10.34 3.35.677 4.627 3.87 6.265 6.263zm-5.663-1.752l-1.502 6.198.54 8.956.65 10.205h-3.36l-.776-8.76c-1.74-5.217-2.256-6.847-2.156-10.72 1.304-4.128 2.96-11.07 6.002-10.392m-4.632 7.967l1.292.21m-1.4 10.905l-4.44 3.04 2.616 2.466 2.962-1.898m-6.278.916l3.803 3.65m3.038 4.302h6.075m2.09-23.85l3.233 3.087.722.57c.69.336 1.406.47 2.256-.54l-.12-1.053-1.46.093-3.49-3.598m1.524-11.295l-9.022-.06.06-1.865c.21-.843.755-1.238 1.443-1.443l3.49-.06c.576.164 1.066.48 1.323 1.203l.06 2.225m-6.21-.083l-.01 2.276c1.004-.36 2.018-.602 2.913-2.223m3.307.03l-.022 1.512c-1.585 3.473-4.167 2.805-6.197.68m40.945-2.287l-9.02-.06.06-1.864c.208-.845.753-1.24 1.442-1.444l3.49-.06c.575.165 1.065.48 1.322 1.203l.06 2.224m-6.21-.082l-.01 2.276c1.003-.36 2.018-.604 2.912-2.223m3.308.03l-.022 1.513c-1.587 3.472-4.17 2.803-6.198.68m.32 6.713l-4.698 2.483-.932-1.745 5.63-4.52c1.036-.11 3.7-.072 2.95 2.135l-.415 2.09c-1.582-1.317-2.076 4.1-3.456 6.146l-2.164-.09 1.52-5.582m0 0l-2.784 5.493c-.512 3.858.856 7.036 1.762 11.097l1.088 8.584h3.52l-1.22-9.76-.8-9.15 2.533-6.738m-8.254.266l-3.548 3.608-1.113.12c-2.16 1.422.43 4.23 1.924 1.805v-.783l3.67-3.007m1.503 13.283l-3.68 2.322 2.15 2.85 2.46-1.648m-5.84-.172l3.64 4.385m2.966 4.302l6.105.03m-36.674-20.79h9.104m2.436-.037h15.995m2.745-9.3l-.045-7.992-24.174-.234m-6.4 3.934v3.03m4.242 1.425l23.557-.06m-.244 2.01l.01-3.782h2.957m2.307 13.882s3.32 3.478 3.036 5.576c-.15 1.097-2.306 2.392-2.306 2.392m-33.21-8.183s2.97 3.18 2.703 5.08c-.153 1.096-2.305 2.392-2.305 2.392M602.017 20.783l-1.14 1.443-3.773-3.193c-.614-.924-.79-.84-1.56-.165-1.568 3.132-2.064 3.872-2.394 5.604l-1.985-.18c.418-2.953 1.58-9.19 4.418-10.65 3.35.677 4.798 4.748 6.435 7.14zm-5.533-1.963l-1.79 4.89 4.727 6.322-3.752 5.363-2.368-1.488 2.138-3.256c-1.24-1.238-1.958-2.142-1.958-2.142m1.214-4.795c-.247 2.977-2.945 9.418-2.945 9.418l-4.754 7.546-2.617-2.466 4.812-6.902.524-8.143c.224-3.478 4.147-10.037 7.19-9.357m-13.46 25.186l3.217 3.068 2.346.06m2.833-7.188l3.926 2.81m5.106-15.514l3.667 2.285.722.57c.69.336 1.406.472 2.257-.54l-.122-1.053h-1.443l-.18.3-3.76-3.006m.617-13.2l-9.02-.06.06-1.866c.208-.843.755-1.238 1.443-1.443l3.488-.06c.576.165 1.066.48 1.323 1.203l.06 2.225m-6.21-.082l-.01 2.276c1.004-.36 2.018-.604 2.913-2.223m3.307.03l-.02 1.512c-1.588 3.47-4.17 2.802-6.2.68m40.945-2.243l-9.022-.06.06-1.864c.21-.844.756-1.24 1.444-1.444l3.488-.06c.577.165 1.066.48 1.324 1.203l.06 2.225m-6.21-.083l-.01 2.276c1.003-.358 2.017-.602 2.912-2.222m3.307.03l-.022 1.512c-1.587 3.473-4.168 2.805-6.2.68m-.098 7.38l-5.04 1.277-.93-1.744 6.448-3.7c1.033-.11 3.697-.073 2.947 2.135l-.66 2.603c-1.58-1.316-2.108 3.313-3.49 5.36l-2.164-.09 1.775-5.72m-.85 14.967l2.8 2.84 2.985-4.81-2.95-6.916 1.896-5.63m-3.668-.083l-3.434 5.728-.38 7.558-3.233 7.64 2.645 2.437 3.34-8.764 2.836-8.885m-3.61-2.736l1.204.15m-4.435-4.083l-3.55 3.61-1.112.12c-2.16 1.42.43 4.23 1.925 1.805v-.78l3.667-3.01m-3.69 20.98l3.066 3.007h1.502m1.566-8.668l3.45 3.542m-31.903-13.534l8.196-.248m2.437-.036h15.995m2.804-9.362l-.103-7.93-23.936.082m-6.638-.122v9.4m-.002-1.048h1.124m2.746-.203l23.685.128m.008 1.353v-3.263h2.96m1.695 16.31l-1.01 1.74M828.49 21.93l-1.142 1.444-3.77-3.194c-.614-.924-.79-.84-1.562-.165-1.566 3.132-2.062 3.873-2.392 5.604l-1.986-.18c.42-2.953 1.58-9.19 4.42-10.652 3.35.678 4.797 4.748 6.433 7.142zm-5.533-1.965l-1.79 4.89 3.9 7.644 1.37 6.85h-3.36l-1.497-5.404c-1.24-1.24-1.958-3.63-1.958-3.63m1.545-5.46c-.248 2.975-2.78 10.08-2.78 10.08l-6.572 5.232-2.617-2.467 6.3-4.916.69-8.474c.284-3.475 4.147-10.037 7.19-9.358m-15.112 23.532l3.217 3.067 1.85.887m9.777-1.402h6.074m-1.837-17.663l3.67 2.285.72.57c.692.337 1.407.472 2.256-.54l-.12-1.053h-1.443l-.18.3-3.76-3.005m.616-13.203l-9.022-.06.06-1.864c.21-.844.756-1.24 1.445-1.444l3.487-.06c.576.164 1.066.48 1.323 1.202l.06 2.225m-6.21-.082l-.01 2.276c1.003-.36 2.018-.602 2.912-2.222m3.308.03l-.02 1.512c-1.588 3.472-4.17 2.803-6.2.68m40.944-2.24l-9.02-.06.06-1.866c.208-.843.754-1.238 1.442-1.443l3.49-.06c.575.166 1.065.482 1.322 1.204l.06 2.225m-6.21-.083l-.01 2.276c1.003-.36 2.018-.603 2.912-2.223m3.308.03l-.022 1.512c-1.587 3.473-4.17 2.805-6.2.68m-.098 7.38l-5.04 1.28-.93-1.745 6.45-3.7c1.032-.11 3.697-.073 2.945 2.135l-.66 2.603c-1.58-1.318-2.108 3.312-3.488 5.36l-2.166-.09 1.774-5.72m.806 11.86l1.43 3.85.988 5.897h3.518l-1.146-6.958-3.61-8.57 1.894-5.63m-3.668-.083l-3.434 5.728-.446 7.52-6.3 4.888 2.646 2.437 6.902-5.34 2.405-9.518m-3.61-2.735l1.205.15m-4.438-4.082l-3.548 3.61-1.114.12c-2.16 1.42.432 4.228 1.925 1.803v-.78l3.67-3.008m-6.826 18.187l3.067 3.006 1.942.66m8.876.282l6.105.03m-39.175-16.84l8.195-.248m2.436-.036h15.994m2.804-9.363l-.103-7.928-23.935.083m-6.638-.123v9.4m0-1.048h1.123m2.746-.203l23.686.128m.01 1.355V13.61h2.958M1051.902 16.848l-1.143 1.443-4.52-3.196c-.346 1.328-2.273 4.386-3.132 6.01l-1.984-.18c.842-3.417 1.674-8.88 4.512-10.34 3.353.677 4.63 3.87 6.265 6.264zm-6.74 14.57l.53 9.27h-3.36l-.31-7.358m4.217-18.236l-1.503 6.198m-4.476-2.908l2.036.375m-7.053 14.958l3.803 3.65m3.32 5.004h6.072m2.32-24.082l3.237 3.085.72.57c.693.336 1.408.47 2.257-.54l-.12-1.053-1.458.093-3.49-3.597m1.52-11.294l-9.02-.06.06-1.865c.207-.844.753-1.24 1.442-1.444l3.488-.06c.576.165 1.066.48 1.323 1.204l.06 2.225m-6.21-.083l-.01 2.276c1.004-.36 2.018-.604 2.913-2.223m3.306.03l-.023 1.512c-1.587 3.472-4.168 2.803-6.198.68M1085.5 5.46l-9.02-.06.058-1.865c.21-.844.756-1.24 1.444-1.444l3.49-.06c.575.166 1.065.48 1.322 1.204l.058 2.224m-6.21-.08l-.01 2.275c1.004-.36 2.018-.604 2.913-2.223m3.308.03l-.023 1.512c-1.587 3.472-4.168 2.803-6.198.68m.323 6.713l-4.7 2.483-.93-1.744 5.63-4.52c1.034-.108 3.698-.072 2.947 2.135l-.414 2.088c-1.58-1.316-.27 4.6-1.65 6.648l-2.166-.09-.283-6.083m3.37 6.765l.728-7.24m-3.57 17.673l-.06 6.8h3.52l-.326-8.526m-7.818-15.68l-3.548 3.61-1.113.12c-2.16 1.42.432 4.23 1.925 1.804v-.782l3.67-3.007m-4.046 16.58l3.642 4.384m4.003 3.18l6.105.03m-37.077-19.613h9.104m2.436-.035l17.813.165m.926-9.466l-.045-7.99-24.174-.235m-6.398 3.934v3.03m4.24 1.425l23.558-.06m-.244 2.01l.01-3.78h2.96m-30.186 11l1.906 8.66-7.57 5.24-2.616-2.467 5.887-4.017s-3.134-4.12-2.797-6.75c.55-4.28 2.984-12.14 6.026-11.462m33.128 11.463l1.566 7.83-8.822 5.34-2.15-2.85 6.01-3.676-1.128-6.247 1.153-7.162M1279.018 21.086l-1.144 1.444-3.77-3.193c-.614-.924-.788-.84-1.563-.165-1.565 3.132-2.06 3.87-2.39 5.603l-1.985-.18c.418-2.952 1.58-9.19 4.418-10.65 3.35.68 4.797 4.75 6.435 7.142zm-7.323 2.928l4.025 6.788-3.127 6.5-2.66-2.104 2.3-3.884c-1.24-1.24-6.032-2.348-6.032-6.32m7.285-5.87l-1.79 4.89m-1.193 5.606l-1.918 2.983-4.71 8.326-2.617-2.466 3.447-6.523 2.013-8.472c.806-3.392 4.146-10.038 7.19-9.36m-13.582 25.137l3.217 3.067 1.41.06m4.195-5.725l3.503 2.806m5.223-16.927l3.67 2.286.72.57c.692.336 1.406.472 2.256-.54l-.12-1.053h-1.444l-.18.3-3.76-3.007m.618-13.2l-9.022-.06.06-1.865c.208-.844.754-1.24 1.442-1.444l3.49-.06c.575.165 1.065.48 1.322 1.203l.06 2.225m-6.21-.082l-.01 2.276c1.003-.36 2.018-.603 2.912-2.222m3.307.03l-.022 1.512c-1.587 3.472-4.168 2.803-6.198.68m40.944-2.242l-9.022-.06.06-1.864c.208-.844.753-1.24 1.443-1.444l3.49-.06c.575.164 1.065.48 1.322 1.203l.06 2.224m-6.21-.083l-.01 2.277c1.003-.36 2.018-.603 2.912-2.223m3.31.03l-.024 1.512c-1.587 3.473-4.17 2.805-6.198.68m-.102 7.38l-5.04 1.278-.93-1.744 6.45-3.7c1.033-.11 3.696-.073 2.946 2.135l-.66 2.603c-1.58-1.318-2.108 3.31-3.487 5.36l-2.167-.09 1.776-5.722m1.98 6.083l1.897-5.632m-7.19 5.75c.817 4.44 3.08 4.748 6.097 7.76l-2.603 4.496 3.17 1.168 2.705-5.79-4.074-7.753m-1.774-5.714l-3.433 5.727-.776 8.346-3.095 6.257 2.645 2.437 3.367-7.04 1.673-3.936m-2.214-8.815l1.203.15m-4.436-4.082l-3.548 3.61-1.113.12c-2.163 1.42.43 4.23 1.923 1.805v-.783l3.67-3.007m-3.952 20.384l3.068 3.006h1.5m3.403-4.407l3.886 1.43m-33.915-15.09l8.197-.25m2.437-.035h15.993m2.806-9.362l-.104-7.93-23.936.084m-6.64-.122v9.4m0-1.048h1.125m2.744-.203l23.685.127m.01 1.356v-3.264h2.958" 
fill="none" stroke="#08A32E" stroke-width="3.5" filter="url(#blur-filter)"/>
<path id="changeColor" d="M1504.962 21.202l-1.144 1.444-3.367-3.91c-.614-.925-1.33-.797-2.105-.12-1.102 1.46-2.205 2.906-3.308 
4.992l-1.984-.18c2.08-3.583 3.957-7.743 6.796-9.203 3.35.678 3.475 4.583 5.112 6.976zm-4.873-2.87l-3.425 5.465 
5.7 6.655 1.233 10.207h-3.36l-1.36-8.763c-2.453-2.803-7.68-4.932-7.315-8.42 2.66-4.446 5.243-9.93 8.286-9.25m-6.917 
6.825l1.293.21m-2.585 3.49l-.993 7.306-6.134 6.405 2.616 2.466 6.584-7.428 1.023-5.053m-11.156 10.795l3.218 3.067 
2.346.06m11.127-.03h6.075m-2.527-19.697l3.67 2.285.722.572c.69.335 1.405.47 
2.256-.54l-.12-1.054h-1.445l-.18.3-3.758-3.007m1.443-12.208l-9.022-.06.06-1.864c.208-.844.753-1.24 1.442-1.444l3.488-.06c.577.165 1.068.48 
1.324 1.203l.06 2.225m-6.21-.082l-.01 2.275c1.004-.36 2.018-.602 2.913-2.223m3.308.03l-.023 1.512c-1.586 3.47-4.168 
2.804-6.198.68m42.208-1.818l-9.02-.06.058-1.865c.208-.843.754-1.238 1.442-1.443l3.49-.06c.575.166 1.065.482 1.322 1.204l.06 
2.226m-6.21-.083l-.01 2.276c1.003-.36 2.018-.604 2.912-2.224m3.306.03l-.023 1.512c-1.586 3.472-4.168 2.805-6.198.68m-.538 
6.214l-4.93.542-.933-1.745 7.006-2.286c1.035-.108 3.698-.072 2.948 2.136l-1.325 1.923c-1.582-1.317-3.76 3.064-5.142 5.113l-2.164-.09 
3.428-5.474m-1.443.12l-3.247 5.262c-1.925 3.202 4.56 5.903 7.578 8.33l1.324 9.053h3.518l-1.804-10.345-5.593-6.586 3.548-5.383m-7.157 
2.647l1.204.15m-2.676-4.572l-3.55 3.61-1.112.12c-2.16 1.42.43 4.23 1.924 1.804v-.78l3.67-3.01m-.904 7.308l-.93 6.465-6.135 6.376 2.645 
2.437 6.406-7.158 1.203-5.114m-11.036 10.676l3.067 3.007h2.438m11.186.03l6.104.03m-42.724-18.49h9.104m2.436-.036h15.995m2.688-8.077l.013-9.215h-23.357m-6.018-.04h-1.198v9.4m0-1.047h1.123m3.82-.038l22.61-.037m.01 
2.288V12.88h2.96M1729.457 17.285l-1.143 1.444-4.52-3.198c-.345 1.328-2.272 4.386-3.13 6.01l-1.984-.18c2.08-3.582 
1.674-8.88 4.512-10.34 3.352.676 4.63 3.87 6.266 6.262zm-5.663-1.754l-1.5 6.2 2.293 
8.722 1.934 10.208h-3.36l-2.062-8.76c-1.74-5.217-5.06-6.848-3.91-10.49 1.306-4.124 2.96-11.067 6.004-10.388m-4.633 7.964l1.293.21m-2.47 
5.707l1.01 5.9-6.134 3.272 2.615 2.466 6.35-3.36m-9.665 2.378l3.802 3.65m7.83 3.137h6.074m-.953-23.615l3.237 3.084.72.572c.692.335 1.407.47 
2.257-.54l-.12-1.054-1.46.093-3.49-3.6m1.523-11.292l-9.022-.06.06-1.865c.208-.843.754-1.238 1.442-1.442l3.49-.06c.575.164 1.065.48 1.322 
1.202l.06 2.226m-6.21-.083l-.01 2.277c1.004-.36 2.018-.604 2.912-2.223m3.31.03l-.023 1.512c-1.586 3.472-4.168 
2.803-6.198.68m40.947-2.29l-9.023-.06.06-1.863c.208-.844.753-1.24 1.442-1.444l3.487-.06c.577.165 1.067.48 1.324 1.203l.06 
2.224m-6.21-.083l-.01 2.276c1.006-.36 2.02-.603 2.915-2.223m3.305.03l-.022 1.512c-1.587 3.47-4.168 2.803-6.2.68m.325 6.71l-4.7 2.484-.93-1.744 
5.63-4.52c1.034-.11 3.697-.073 2.947 2.135l-.414 2.09c-1.582-1.317-2.074 4.098-3.455 6.146l-2.165-.09 1.522-5.582m0 0l-2.785 5.492c-1.914 2.34 
1.615 7.388 3.515 10.747l2.492 8.7h3.516l-2.972-9.993-2.202-8.682 2.533-6.738m-8.254.265l-3.548 3.608-1.113.12c-2.16 1.422.43 4.23 1.925 
1.805v-.78l3.668-3.01m2.322 12.35l-6.953 4.19 2.15 2.85 6.55-3.868m-9.93 2.05l3.64 4.384m8.577 3.13l6.103.032m-39.83-20.558h9.104m2.437-.036h15.994m2.747-9.3l-.045-7.992-24.174-.234m-6.4 3.935v3.03m4.243 
1.427l23.555-.06m-.245 2.01l.01-3.78h2.96M1953.087 17.782l-1.142 1.443-4.397-3.693c-.344 1.328-1.197 4.964-2.054 6.587l-1.985-.18c1.336-3.912.598-9.46 3.436-10.92 3.35.678 4.505 4.368 6.14 6.76zm-5.54-2.25l-.426 6.362-1.892 8.19-1.66 10.29h-3.36l1.532-8.842c-.173-5.216-.737-4.357.278-9.956.938-5.173 
1.886-11.234 4.928-10.556m-7.806 22.927l1.895 2.118m-.798 5.99h6.074m5.63-22.836l2.905 3.29.723.57c.69.336 
1.405.472 2.256-.54l-.12-1.053-1.584-.03-3.037-3.68m.712-12.315l-9.022-.06.06-1.865c.208-.844.753-1.24 1.443-1.443l3.488-.06c.576.164 
1.065.48 1.322 1.202l.06 2.226m-6.21-.083l-.01 2.276c1.004-.36 2.018-.603 2.913-2.223m3.305.03l-.022 1.512c-1.587 
3.472-4.168 2.803-6.198.68m41.88-1.762l-9.02-.06.06-1.864c.208-.845.753-1.24 1.443-1.445l3.488-.06c.576.165 1.066.48 
1.323 1.203l.058 2.225m-6.21-.082l-.01 2.277c1.004-.36 2.02-.603 2.913-2.222m3.307.03l-.022 1.512c-1.586 3.472-4.167 2.803-6.197.68m.324 
6.712l-4.625 3.28-.93-1.745 5.554-5.317c1.033-.11 3.7-.073 2.947 2.135l-.414 2.09c-1.582-1.317-.077 4.662-1.457 6.71l-2.166-.09-.476-6.147m0 
0l-.99 6.698c-.714 3.172-.334 5.727-.495 9.168l-1.173 9.076h3.518l1.11-9.398 1.637-9.396.49-6.62m-8.088 1.09l-3.713 2.784-1.11.12c-2.163 
1.42.43 4.228 1.923 1.804v-.78l3.834-2.183m1.572 13.502l-1.756 1.53 1.406 1.73m-2.773-.66L1974.53 37m-.582 
5.34l6.104.032m-32.712-20.558l7.122.05m3.18-.086l17.96.085m.78-9.385l-.045-7.992-25.05-.292m-5.524 3.993v3.03m4.242 1.428l23.557-.06m-.302 3.015l.067-4.786h2.96m3.28 13.767s2.887 3.174 3.867 5.114c.317 1.695-4.937 4.82-4.937 4.82m-37.086-.122l-1.153-1.455 1.475-1.406m4.743-6.152s3.003 3.293 2.958 3.676c-.13 1.092-4.9 5.82-4.9 
5.82M2182.942 21.205l-1.143 1.443-3.773-3.193c-.613-.924-.787-.84-1.562-.165-1.566 3.133-2.062 3.872-2.392 
5.604l-1.985-.18c.418-2.953 1.58-9.19 4.42-10.65 3.35.678 4.796 4.75 6.433 7.142zm-5.532-1.962l-1.79 4.89 4.726 6.32.378 
6.85h-3.36l-.507-5.404c-1.24-1.24-2.783-2.31-2.783-2.31m1.548-5.46c-.247 2.976-3.11 8.592-3.11 8.592l-7.4 8.21-2.618-2.467 6.134-6.405 
2.014-8.473c.805-3.39 4.145-10.038 7.188-9.358m-16.266 25.015l3.217 3.067 2.347.06m10.272-3.387h6.073m-1.673-16.34l3.668 
2.285.722.572c.69.335 1.406.47 2.256-.54l-.12-1.054h-1.443l-.18.3-3.758-3.007m.615-13.198l-9.022-.06.06-1.865c.208-.844.754-1.24 
1.443-1.444l3.49-.06c.575.165 1.065.48 1.322 1.203l.06 2.225m-6.21-.08l-.01 2.275c1.004-.36 2.018-.603 2.913-2.223m3.308.03l-.022 
1.512c-1.586 3.473-4.168 2.805-6.198.68m40.946-2.24l-9.023-.06.06-1.865c.21-.845.755-1.24 1.443-1.445l3.488-.06c.576.165 1.066.48 
1.323 1.203l.058 2.225m-6.21-.082l-.01 2.277c1.005-.36 2.02-.604 2.914-2.223m3.307.03l-.024 1.512c-1.586 3.472-4.168 
2.803-6.198.68m-.1 7.38l-5.04 1.28-.932-1.746 6.45-3.7c1.033-.11 3.697-.073 2.946 2.135l-.658 2.603c-1.582-1.317-2.11 
3.312-3.49 5.36l-2.165-.09 1.774-5.72m.474 11.197s.23.1 3.25 2.528l-.5 5.9h3.517l.836-6.96-5.592-6.585 1.896-5.63m-3.67-.084l-3.434 
5.727-.777 8.348-6.134 6.375 2.645 2.436 6.406-7.16 3.07-10.012m-3.61-2.736l1.202.15m-4.436-4.082l-3.55 3.61-1.112.12c-2.16 1.42.43 
4.228 1.925 1.804v-.78l3.668-3.01m-6.99 20.5l3.066 3.01h2.436m8.547-3.36l6.104.032m-39.174-14.857l8.197-.25m2.435-.034h15.996m2.803-9.363l-.103-7.93-23.935.083m-6.64-.12v9.398m0-1.05h1.124m2.746-.2l23.685.128m.01 
1.353V12.88h2.958M2406.686 17.286l-1.143 1.443-4.52-3.198c-.345 1.33-2.272 4.387-3.13 6.01l-1.984-.18c.84-3.417 1.672-8.88 4.51-10.34 
3.353.677 4.63 3.87 6.266 6.263zm-5.664-1.758l-1.502 6.198 2.995 8.723 1.233 10.205h-3.36l-1.36-8.756m-3.986-13.083l2.038.376m-8.872 
15.785l3.802 3.65m8.41 3.712h6.073m-.952-23.615l3.238 3.083.72.572c.692.336 1.407.47 2.257-.54l-.12-1.053-1.46.093-3.49-3.6m1.522-11.29l-9.02-.06.06-1.865c.208-.845.753-1.24 
1.442-1.444l3.487-.06c.577.165 1.067.48 1.324 1.204l.06 2.224m-6.21-.08l-.01 2.273c1.004-.358 2.018-.6 2.912-2.22m3.308.03l-.023 
1.512c-1.586 3.472-4.168 2.803-6.198.68m40.946-2.288l-9.02-.06.058-1.864c.21-.845.754-1.24 1.443-1.444l3.49-.06c.574.164 1.064.48 
1.32 1.203l.06 2.224m-6.21-.083l-.01 2.277c1.004-.36 2.02-.603 2.913-2.223m3.307.03l-.022 1.512c-1.587 3.473-4.168 2.805-6.198.68m.323 
6.713l-4.7 2.484-.93-1.745 5.63-4.52c1.034-.11 3.697-.075 2.947 2.135l-.414 2.09c-1.582-1.318-.27 4.598-1.65 
6.646l-2.167-.09-.282-6.084m1.474 16.654l1.75 8.287h3.517l-1.804-10.344-1.565-7.83.728-7.24m-8.254.265l-3.55 3.61-1.113.12c-2.16 
1.42.432 4.227 1.926 1.803v-.78l3.668-3.008m-5.86 17.57l3.64 4.386m8.576 3.133l6.104.032m-39.83-20.558h9.106m2.437-.035l17.813.164m.928-9.467l-.045-7.99-24.176-.234m-6.398 
3.934v3.03m4.242 1.426l23.556-.06m-.244 2.01l.01-3.78h2.958m-30.186 11l.086 9.487-7.567 5.24-2.616-2.466 
6.714-3.852s-2.143-5.112-1.806-7.74c.55-4.283 2.984-12.142 6.027-11.464m33.127 11.463l-.61 8.972-8.464 
5.19-2.15-2.85 6.834-3.84-.135-7.074 1.154-7.162M2630.038 17.778l-1.143 1.444-4.396-3.693c-.346 1.327-1.198 4.965-2.057 
6.588l-1.983-.18c1.337-3.913.6-9.46 3.437-10.92 3.352.678 4.505 4.367 6.14 6.76zm-6.86 14.264l-2.658 
8.33h-3.36l1.71-5.512m5.628-19.33l-.427 6.363-.734 2.88m-7.244 9.17l3.037 3.98m-1.937 4.134h6.074m5.63-22.837l2.905 3.29.72.572c.693.335 
1.407.47 2.257-.54l-.122-1.054-1.58-.03-3.038-3.68m.71-12.316l-9.022-.06.06-1.864c.21-.844.755-1.24 1.444-1.444l3.488-.06c.576.164 1.066.48 
1.323 1.203l.06 2.225m-6.21-.083l-.01 2.275c1.005-.36 2.02-.602 2.914-2.223m3.306.03l-.023 1.513c-1.586 3.47-4.168 
2.804-6.198.68m41.88-1.763l-9.02-.06.06-1.864c.207-.844.753-1.24 1.442-1.444l3.488-.06c.576.166 1.066.48 1.323 1.203l.06 
2.226m-6.21-.084l-.01 2.275c1.004-.36 2.018-.602 2.913-2.222m3.307.03l-.022 1.512c-1.586 3.472-4.168 2.804-6.198.68m.324 
6.712l-4.625 3.28-.932-1.744 5.556-5.317c1.032-.11 3.697-.073 2.946 2.135l-.414 2.09c-1.582-1.316-.077 4.663-1.458 
6.71l-2.165-.09-.478-6.146m4.1-.472l-.49 6.62-.234 1.97s2.736 4.855 3.365 5.86c.55.878-8.047 5.89-8.047 5.89m0 0l-1.35 
5.074h3.518l1.987-7.82m-2.848-17.12s-.35 4.58-.99 6.697c-.887 2.942-.36 3.272 2.597 6.752l-4.848 3.945 2.15 2.848m-2.9-19.623l-3.714 
2.78-1.112.12c-2.16 1.423.432 4.23 1.925 1.806v-.78l3.835-2.18m-1.55 16.103l3.31 4.137m-1.45 4.02l6.105.032m-32.713-20.56l7.122.05m3.178-.086l17.963.086m.78-9.385l-.046-7.993-25.05-.292m-5.524 
3.993v3.03m4.24 1.426l23.558-.06m-.302 3.016l.067-4.785h2.958m-29.923 13.716s3.12 4.14 3.075 4.525c-.13 1.092-7.32 6.1-7.32 
6.1l-1.855-2.216 5.115-4.185c-4.482-3.01-4.38-1.58-3.364-7.18.937-5.17 1.885-11.233 4.928-10.554m29.333 19.833l.55-3.426m-34.064 
3.503l.894-3.724M2859.88 21.203l-1.142 1.443-3.772-3.194c-.612-.924-.787-.84-1.56-.165-1.567 3.132-2.064 3.873-2.394 
5.604l-1.985-.18c.42-2.95 1.58-9.19 4.42-10.65 3.35.678 4.797 4.75 6.433 7.142zm-7.322 2.928l4.726 6.322.38 6.85h-3.36l-.507-5.404c-1.24-1.24-6.733-2.815-6.733-6.788m7.283-5.87l-1.79 4.89m-1.192 5.607l-1.92 2.983-7.397 8.208-2.617-2.465 6.137-6.405 2.012-8.473c.805-3.392 4.145-10.038 7.188-9.358M2838.5 39.245l3.217 3.067 2.346.06m10.273-3.387h6.074m-1.672-16.34l3.67 2.285.72.57c.692.336 1.407.47 2.256-.54l-.12-1.054h-1.444l-.18.302-3.76-3.007M2860.5 8l-9.02-.06.06-1.864c.21-.844.754-1.238 1.443-1.443l3.49-.06c.575.164 1.065.48 1.322 1.202l.06 2.226m-6.21-.083l-.01 2.276c1.004-.36 2.02-.602 2.913-2.222m3.308.03l-.023 1.513c-1.587 3.472-4.17 2.804-6.2.68m40.947-2.243l-9.022-.06.06-1.865c.21-.844.755-1.238 1.443-1.443l3.49-.06c.575.165 1.065.48 1.32 1.203l.06 2.226m-6.208-.083l-.01 2.276c1.003-.36 2.017-.603 2.912-2.222m3.306.03l-.022 1.513c-1.586 3.472-4.168 2.803-6.198.68m-.102 7.38l-5.038 1.278-.932-1.743 6.45-3.7c1.034-.11 3.697-.073 2.947 2.135l-.66 2.603c-1.58-1.318-2.11 3.312-3.49 5.36l-2.164-.09 1.774-5.72m1.983 6.08l1.896-5.63m-7.19 5.747c-.586 4.44 4.013 5.1 7.032 7.527l-.5 5.9h3.518l.838-6.96-5.593-6.586m-1.775-5.714l-3.434 5.727-.776 8.347-6.134 6.375 2.646 2.435 6.405-7.157 1.673-3.935m-2.216-8.816l1.203.15m-4.436-4.08l-3.548 3.608-1.113.12c-2.162 1.42.43 4.23 1.924 1.804v-.782l3.67-3.008m-6.99 20.5l3.066 3.008h2.437m8.545-3.358l6.105.03m-39.176-14.855l8.197-.25m2.436-.035h15.995m2.805-9.36l-.103-7.93-23.935.08m-6.64-.12v9.4m0-1.05h1.124m2.747-.203l23.685.128m.01 1.354v-3.265h2.96M1635.442 16.46v-4.197h2.96m-25.58 1.947l22.61-.037m-27.553.074H1609m.075-8.352h-1.198v9.4m30.56-.146l.012-9.216h-23.356m4.658 17.292h15.996m-27.536.035h9.104m27.515 18.463l6.105.03m-20.807-4.004l3.07 3.007 2.2.934m.35-18.465l1.298 7.307-6.134 6.375 2.646 2.436 6.405-7.157-.254-3.137m-4.244-13.43l-3.053 3.94-1.113.12c-2.16 1.42.43 4.228 1.925 1.803v-.78l3.173-3.338m1.037 3.007l1.203.15m.63-3.128l-3.247 5.263c-.194 2.593 2.458 5.084 5.476 8.797l3.427 8.584h3.518l-2.97-9.76-4.427-7.17 3.053-5.713m-2.768-.572l-4.93.54-.933-1.744 7.007-2.286c1.033-.107 3.697-.072 2.946 2.136l-1.322 1.924c-1.582-1.317-3.266 3.395-4.646 5.443l-2.166-.09 2.932-5.803m7.9-8.78l-.023 1.512c-1.587 3.47-4.168 2.803-6.198.68m.01-2.275l-.01 2.276c1.003-.36 2.017-.603 2.912-2.223m5.954.03l-9.02-.06.06-1.865c.21-.844.754-1.24 1.443-1.444l3.488-.058c.577.163 1.067.48 1.323 1.2l.06 2.227m-32.872.208l-.022 1.514c-1.587 3.473-4.17 2.805-6.2.68m.012-2.275l-.01 2.275c1.003-.36 2.017-.603 2.912-2.222m5.954.028l-9.022-.06.06-1.864c.208-.843.755-1.238 1.443-1.442l3.488-.06c.576.163 1.066.48 1.323 1.2l.06 2.227m.06 13.654l3.667 2.285.722.57c.69.336 1.405.472 2.256-.54l-.122-1.053h-1.442l-.18.3-3.76-3.006m-4.69 21.14h6.074m-19.788-3.097l3.217 3.067 2.017.72m-.15-18.28l1.983 7.306-6.134 6.406 2.617 2.465 6.585-7.428-.35-2.183m-3.407-10.267l1.294.21m5.865-2.93l-3.425 5.464 4.103 7.453 2.83 9.41h-3.36l-2.958-7.964c-1.057-2.427-6.083-5.73-5.718-9.218 2.66-4.445 5.243-9.93 8.286-9.25m5.112 6.976l-1.14 1.444-3.62-4.157c-.612-.925-1.33-.797-2.103-.12-1.103 1.46-1.957 3.154-3.06 5.24l-1.985-.18c2.08-3.583 3.708-7.99 6.548-9.45 3.35.677 3.723 4.83 5.36 7.224zM1841.404 17.05l-1.143 1.442-4.52-3.197c-.344 1.33-2.27 4.388-3.13 6.012l-1.984-.18c2.083-3.583 1.676-8.88 4.514-10.342 3.352.677 4.628 3.87 6.265 6.264zm-5.66-1.753l-1.503 6.198.54 8.956.65 10.208h-3.36l-.777-8.76c-1.74-5.217-2.256-6.848-2.156-10.722 1.304-4.125 2.96-11.07 6.002-10.39m-4.633 7.966l1.293.21m-1.4 10.907l-4.44 3.038 2.615 2.466 2.962-1.9m-6.276.917l3.803 3.652m3.04 4.302h6.073m2.087-23.85l3.236 3.085.72.57c.692.336 1.407.47 2.256-.54l-.12-1.054-1.46.095-3.49-3.6m1.523-11.29l-9.023-.06.06-1.866c.208-.844.753-1.24 1.443-1.443l3.488-.06c.576.165 1.066.48 1.323 1.203l.06 2.226m-6.21-.084l-.01 2.276c1.004-.36 2.02-.604 2.913-2.223m3.306.027l-.023 1.513c-1.586 3.473-4.167 2.805-6.197.68m40.945-2.288l-9.02-.06.058-1.864c.21-.844.754-1.24 1.444-1.444l3.488-.06c.576.165 1.066.48 1.323 1.202l.06 2.226m-6.21-.082l-.01 2.276c1.003-.36 2.017-.603 2.91-2.223m3.308.03l-.02 1.512c-1.589 3.473-4.17 2.805-6.2.68m.323 6.71l-4.7 2.484-.93-1.745 5.63-4.52c1.034-.11 3.698-.072 2.947 2.136l-.414 2.09c-1.58-1.317-2.075 4.1-3.455 6.148l-2.166-.092 1.522-5.582m0-.002l-2.785 5.493c-.512 3.858.856 7.037 1.76 11.098l1.09 8.583h3.52l-1.22-9.76-.8-9.148 2.534-6.738m-8.254.265l-3.55 3.61-1.11.12c-2.163 1.42.43 4.228 1.923 1.803v-.78l3.67-3.01m1.5 13.285l-3.678 2.322 2.15 2.85 2.46-1.648m-5.84-.172l3.64 4.385m2.966 4.3l6.105.032M1834.3 21.58h9.106m2.436-.035h15.995m2.746-9.3l-.045-7.992-24.176-.233m-6.398 3.935v3.03m4.242 1.426l23.556-.06m-.243 2.01l.01-3.78h2.957m2.306 13.882s3.32 3.478 3.036 5.574c-.15 1.098-2.307 2.393-2.307 2.393m-33.21-8.184s2.97 3.18 2.705 5.08c-.154 1.096-2.305 2.392-2.305 2.392M2068.716 20.784l-1.14 1.444-3.773-3.194c-.614-.924-.79-.84-1.56-.165-1.568 3.13-2.064 3.872-2.394 5.603l-1.986-.18c.418-2.952 1.578-9.19 4.418-10.65 3.35.677 4.797 4.748 6.435 7.14zm-5.532-1.962l-1.79 4.89 4.725 6.322-3.753 5.363-2.368-1.49 2.137-3.255c-1.24-1.24-1.958-2.142-1.958-2.142m1.215-4.798c-.25 2.977-2.947 9.418-2.947 9.418l-4.753 7.547-2.617-2.466 4.813-6.9.526-8.143c.224-3.48 4.145-10.038 7.188-9.358m-13.458 25.183l3.217 3.068 2.346.06m2.833-7.187l3.925 2.81m5.102-15.515l3.67 2.286.72.57c.692.337 1.407.472 2.256-.54l-.12-1.052h-1.44l-.18.3-3.76-3.007m.615-13.202l-9.02-.06.06-1.865c.21-.843.754-1.238 1.443-1.443l3.488-.06c.578.165 1.067.48 1.324 1.204l.06 2.224m-6.21-.084l-.01 2.276c1.004-.36 2.02-.603 2.913-2.223m3.308.03l-.022 1.512c-1.587 3.473-4.17 2.805-6.2.68m40.946-2.24l-9.022-.06.06-1.865c.208-.844.753-1.238 1.442-1.443l3.488-.06c.576.164 1.066.48 1.323 1.202l.06 2.225m-6.208-.083l-.01 2.276c1.003-.36 2.018-.603 2.912-2.223m3.31.03l-.024 1.512c-1.587 3.472-4.17 2.805-6.198.68m-.103 7.38l-5.04 1.28-.932-1.745 6.45-3.702c1.035-.108 3.698-.072 2.948 2.136l-.66 2.603c-1.58-1.317-2.108 3.31-3.49 5.36l-2.164-.09 1.775-5.722m-.85 14.968l2.798 2.84 2.984-4.81-2.95-6.916 1.896-5.63m-3.67-.083l-3.433 5.727-.38 7.558-3.233 7.64 2.646 2.437 3.34-8.764 2.835-8.886m-3.607-2.736l1.203.15m-4.436-4.082l-3.548 3.61-1.113.12c-2.163 1.42.43 4.228 1.923 1.804v-.783l3.67-3.007m-3.695 20.98l3.068 3.006h1.502m1.564-8.667l3.45 3.542m-31.902-13.534l8.197-.247m2.436-.037h15.994m2.805-9.364l-.103-7.93-23.937.083m-6.64-.123v9.4m0-1.05h1.125m2.745-.2l23.685.126m.01 1.355v-3.264h2.96m1.693 16.31l-1.007 1.74M2295.188 21.928l-1.142 1.443-3.77-3.19c-.616-.927-.79-.842-1.563-.168-1.567 3.133-2.063 3.872-2.393 5.604l-1.985-.18c.42-2.953 1.58-9.19 4.42-10.65 3.35.678 4.796 4.748 6.433 7.14zm-5.532-1.963l-1.79 4.89 3.9 7.643 1.37 6.85h-3.36l-1.498-5.403c-1.24-1.24-1.958-3.63-1.958-3.63m1.546-5.46c-.247 2.976-2.78 10.08-2.78 10.08l-6.573 5.233-2.616-2.466 6.3-4.918.69-8.474c.284-3.475 4.147-10.04 7.19-9.36m-15.112 23.534l3.218 3.067 1.85.887m9.776-1.402h6.073m-1.835-17.663l3.667 2.285.723.57c.69.337 1.406.472 2.256-.54l-.12-1.052h-1.444l-.182.3-3.758-3.006m.616-13.202l-9.02-.06.06-1.865c.208-.843.753-1.238 1.443-1.443l3.487-.06c.576.164 1.066.48 1.323 1.202l.06 2.226m-6.21-.083l-.01 2.275c1.003-.36 2.017-.602 2.912-2.223m3.306.03l-.022 1.514c-1.586 3.473-4.168 2.804-6.198.68m40.945-2.24l-9.022-.06.06-1.865c.21-.844.754-1.24 1.444-1.444l3.488-.06c.576.166 1.066.48 1.323 1.204l.06 2.225m-6.21-.084l-.01 2.276c1.004-.36 2.02-.603 2.913-2.223m3.307.03l-.023 1.51c-1.586 3.473-4.167 2.805-6.198.682m-.1 7.38l-5.038 1.28-.933-1.745 6.45-3.7c1.033-.11 3.698-.074 2.947 2.133l-.66 2.603c-1.58-1.316-2.11 3.313-3.488 5.36l-2.166-.09 1.776-5.72m.804 11.862l1.43 3.85.988 5.897h3.52l-1.15-6.958-3.608-8.57 1.895-5.63m-3.67-.083l-3.433 5.728-.446 7.52-6.3 4.888 2.647 2.436 6.902-5.34 2.405-9.518m-3.61-2.736l1.204.15m-4.437-4.08l-3.55 3.607-1.11.12c-2.162 1.422.43 4.23 1.923 1.805v-.782l3.67-3.007m-6.826 18.188l3.068 3.007 1.94.66m8.876.28l6.105.03m-39.177-16.838l8.197-.247m2.436-.037h15.994m2.804-9.362l-.103-7.93-23.934.083m-6.64-.12v9.4m0-1.05h1.125m2.747-.204l23.685.128m.01 1.353v-3.263h2.958M2518.598 16.846l-1.142 1.444-4.52-3.198c-.346 1.33-2.273 4.388-3.13 6.012l-1.985-.18c.844-3.418 1.675-8.88 4.515-10.342 3.35.678 4.627 3.872 6.264 6.264zm-6.74 14.57l.532 9.27h-3.36l-.308-7.357m4.214-18.237l-1.502 6.197m-4.476-2.908l2.036.375m-7.053 14.96l3.804 3.65m3.318 5.005h6.075m2.32-24.083l3.236 3.084.72.57c.692.336 1.407.472 2.257-.54l-.12-1.053-1.46.095-3.49-3.6m1.52-11.292l-9.02-.06.058-1.864c.21-.845.756-1.24 1.444-1.445l3.488-.06c.578.165 1.067.48 1.325 1.203l.06 2.226m-6.21-.084l-.01 2.276c1.004-.36 2.018-.602 2.913-2.222m3.306.03l-.022 1.51c-1.586 3.474-4.167 2.806-6.198.682m40.946-2.29l-9.02-.06.06-1.864c.208-.843.754-1.238 1.442-1.442l3.488-.06c.577.164 1.067.48 1.324 1.202l.06 2.226m-6.212-.085l-.01 2.276c1.004-.36 2.018-.604 2.913-2.223m3.307.03l-.023 1.512c-1.588 3.47-4.17 2.802-6.2.68m.323 6.71l-4.7 2.485-.93-1.744 5.63-4.52c1.033-.108 3.697-.072 2.947 2.136l-.414 2.09c-1.582-1.318-.27 4.598-1.652 6.647l-2.164-.09-.283-6.084m3.37 6.765l.73-7.24m-3.57 17.673l-.06 6.8h3.517l-.325-8.528m-7.818-15.678l-3.55 3.608-1.112.12c-2.16 1.422.432 4.23 1.925 1.805v-.782l3.67-3.007m-4.044 16.58l3.643 4.385m4.003 3.18l6.105.03m-37.076-19.613h9.104m2.438-.036l17.812.166m.93-9.465l-.046-7.99-24.176-.234m-6.398 3.934v3.03m4.243 1.427l23.556-.06m-.242 2.01l.01-3.78h2.956m-30.183 11l1.906 8.66-7.57 5.24-2.616-2.466 5.887-4.016s-3.134-4.12-2.797-6.75c.55-4.28 2.984-12.14 6.028-11.463m33.125 11.465l1.567 7.83-8.822 5.34-2.15-2.85 6.01-3.678-1.128-6.245 1.155-7.162M2745.716 21.084l-1.143 1.443-3.77-3.193c-.613-.924-.788-.84-1.563-.165-1.565 3.132-2.06 3.87-2.39 5.603l-1.986-.18c.418-2.953 1.58-9.19 4.418-10.65 3.35.677 4.797 4.748 6.435 7.14zm-7.324 2.93l4.026 6.787-3.127 6.5-2.658-2.104 2.3-3.884c-1.24-1.24-6.033-2.348-6.033-6.32m7.282-5.87l-1.79 4.89m-1.193 5.608l-1.92 2.983-4.71 8.325-2.616-2.466 3.447-6.522 2.014-8.474c.806-3.39 4.146-10.036 7.19-9.358m-13.582 25.137l3.217 3.067 1.41.06m4.194-5.723l3.504 2.804m5.225-16.924l3.668 2.286.723.57c.69.336 1.405.47 2.255-.54l-.12-1.053h-1.444l-.18.3-3.76-3.007m.618-13.2l-9.022-.06.06-1.865c.21-.843.756-1.237 1.444-1.442l3.488-.06c.577.164 1.066.48 1.323 1.202l.06 2.226m-6.21-.084l-.01 2.275c1.003-.36 2.017-.602 2.912-2.223m3.308.03l-.022 1.514c-1.588 3.47-4.17 2.803-6.2.68m40.947-2.242l-9.023-.06.06-1.865c.21-.842.755-1.237 1.443-1.442l3.488-.06c.576.164 1.066.48 1.322 1.203l.06 2.226m-6.21-.084l-.01 2.276c1.005-.36 2.02-.602 2.914-2.222m3.308.03l-.023 1.51c-1.59 3.474-4.17 2.806-6.2.682m-.098 7.38l-5.04 1.28-.932-1.745 6.45-3.702c1.033-.108 3.698-.072 2.946 2.136l-.658 2.603c-1.582-1.318-2.11 3.31-3.49 5.36l-2.166-.09 1.776-5.722m1.985 6.083l1.895-5.63m-7.19 5.75c.817 4.44 3.08 4.748 6.098 7.76l-2.604 4.496 3.168 1.168 2.706-5.79-4.073-7.753m-1.775-5.712l-3.434 5.727-.777 8.346-3.095 6.26 2.646 2.436 3.366-7.042 1.674-3.934m-2.215-8.815l1.203.15m-4.435-4.082l-3.548 3.61-1.114.12c-2.16 1.42.43 4.228 1.925 1.803v-.78l3.67-3.01m-3.952 20.386l3.068 3.007h1.502m3.402-4.41l3.885 1.432m-33.917-15.09l8.196-.247m2.436-.036h15.994m2.804-9.363l-.103-7.93-23.935.082m-6.638-.122v9.4m0-1.05h1.124m2.746-.202l23.685.13m.01 1.352v-3.264h2.957M38.265 21.2l-1.143 1.444-3.368-3.91c-.614-.923-1.332-.795-2.105-.12-1.102 1.46-2.205 2.908-3.308 4.993l-1.985-.18c2.082-3.583 3.958-7.742 6.797-9.203 3.35.68 3.475 4.584 5.113 6.977zm-4.872-2.87l-3.424 5.464 5.7 6.656L36.9 40.657h-3.36l-1.36-8.76c-2.454-2.804-7.68-4.934-7.315-8.422 2.66-4.445 5.242-9.93 8.285-9.25m-6.917 6.826l1.295.21m-2.59 3.49l-.99 7.308-6.135 6.405 2.616 2.466 6.586-7.43 1.022-5.05M16.882 39.244l3.217 3.067 2.345.06m11.125-.035h6.076M37.12 22.64l3.67 2.286.72.57c.69.336 1.406.472 2.256-.54l-.12-1.053h-1.444l-.18.3-3.76-3.006m1.446-12.21l-9.023-.06.06-1.863c.21-.845.755-1.24 1.444-1.444l3.487-.06c.576.164 1.066.48 1.323 1.203l.06 2.224m-6.21-.08l-.01 2.275c1.005-.36 2.02-.603 2.914-2.223m3.305.03l-.022 1.51c-1.588 3.473-4.17 2.804-6.2.682m42.208-1.82l-9.02-.06.06-1.864c.208-.844.754-1.238 1.442-1.443l3.49-.06c.575.164 1.065.48 1.322 1.203l.06 2.225m-6.21-.083l-.01 2.276c1.005-.36 2.02-.603 2.914-2.223m3.306.03l-.022 1.512c-1.586 3.473-4.167 2.805-6.198.68m-.538 6.215l-4.933.54-.932-1.743 7.006-2.286c1.033-.107 3.698-.07 2.947 2.137L66.41 18.34c-1.582-1.316-3.762 3.065-5.142 5.114l-2.166-.09 3.428-5.474m-1.442.122l-3.247 5.262c-1.926 3.2 4.557 5.903 7.576 8.33l1.324 9.05h3.517l-1.804-10.343-5.593-6.585 3.548-5.383m-7.156 2.648l1.202.15m-2.674-4.57l-3.55 3.607-1.112.12c-2.16 1.422.43 4.23 1.925 1.805v-.782l3.668-3.007m-.9 7.308l-.934 6.466-6.134 6.376 2.647 2.436 6.404-7.158 1.203-5.113M49.96 39.304l3.067 3.007h2.436m11.187.03l6.104.03M30.03 23.88h9.105m2.437-.036h15.994m2.688-8.075l.013-9.217H36.91m-6.018-.04h-1.198v9.4m0-1.048h1.123m3.82-.038l22.61-.037m.01 2.29v-4.2h2.958M262.76 17.284l-1.143 1.443-4.52-3.197c-.346 1.328-2.273 4.386-3.13 6.01l-1.985-.18c2.082-3.582 1.674-8.88 4.513-10.34 3.35.676 4.628 3.87 6.264 6.263zm-5.663-1.754l-1.502 6.198 2.293 8.722 1.936 10.208h-3.36l-2.063-8.76c-1.738-5.217-5.058-6.847-3.907-10.488 1.304-4.125 2.96-11.07 6.003-10.39m-4.634 7.964l1.293.21m-2.47 5.707l1.01 5.9-6.134 3.273 2.617 2.467 6.352-3.36m-9.67 2.376l3.803 3.65m7.83 3.134h6.075m-.952-23.615l3.236 3.084.722.57c.69.336 1.406.47 2.256-.54l-.12-1.053-1.46.094-3.49-3.598m1.52-11.293l-9.02-.06.06-1.865c.21-.845.754-1.24 1.443-1.444l3.49-.06c.575.165 1.065.48 1.322 1.204l.06 2.225m-6.21-.084l-.01 2.276c1.003-.36 2.017-.603 2.912-2.223m3.307.03l-.02 1.51c-1.59 3.473-4.17 2.806-6.2.682m40.947-2.287l-9.02-.06.06-1.865c.208-.845.754-1.24 1.443-1.444l3.488-.06c.577.164 1.067.48 1.324 1.203l.06 2.223m-6.21-.082l-.01 2.277c1.005-.36 2.02-.602 2.914-2.222m3.306.03l-.02 1.513c-1.59 3.47-4.17 2.803-6.2.68m.323 6.71l-4.7 2.485-.93-1.745 5.63-4.518c1.034-.11 3.698-.074 2.947 2.134l-.414 2.09c-1.582-1.317-2.075 4.097-3.455 6.147l-2.165-.09 1.52-5.583m0 0l-2.784 5.493c-1.914 2.337 1.615 7.387 3.516 10.746l2.49 8.7h3.52l-2.973-9.993-2.203-8.68 2.533-6.74m-8.255.266l-3.547 3.608-1.113.12c-2.16 1.42.43 4.228 1.924 1.804v-.78l3.67-3.01m2.32 12.35l-6.953 4.19 2.15 2.852 6.55-3.87m-9.93 2.05l3.64 4.385m8.576 3.132l6.104.03m-39.83-20.557h9.104m2.44-.036h15.992m2.748-9.302l-.047-7.992-24.174-.233m-6.4 3.934v3.03m4.242 1.427l23.557-.06m-.245 2.01l.008-3.78h2.96M486.387 17.78l-1.143 1.442-4.397-3.693c-.345 1.326-1.197 4.964-2.055 6.587l-1.985-.18c1.338-3.912.6-9.458 3.44-10.92 3.35.68 4.502 4.368 6.14 6.76zm-5.54-2.252l-.426 6.363-1.892 8.192-1.66 10.29h-3.36l1.532-8.844c-.174-5.215-.738-4.356.277-9.955.938-5.173 1.886-11.234 4.93-10.555m-7.806 22.926l1.896 2.118m-.8 5.99h6.073m5.63-22.834l2.904 3.29.722.572c.69.335 1.406.47 2.256-.54l-.12-1.054-1.583-.03-3.038-3.682m.71-12.313l-9.02-.06.06-1.864c.21-.844.755-1.24 1.443-1.444l3.488-.06c.577.164 1.067.48 1.324 1.203l.06 2.225m-6.21-.082l-.01 2.276c1.003-.36 2.018-.602 2.912-2.222m3.306.03l-.022 1.51c-1.586 3.474-4.168 2.806-6.198.682m41.882-1.762l-9.022-.06.06-1.865c.21-.843.756-1.238 1.444-1.443l3.488-.06c.577.164 1.066.48 1.324 1.203l.06 2.225m-6.21-.083l-.01 2.275c1.004-.36 2.017-.602 2.913-2.222m3.31.03l-.024 1.512c-1.586 3.472-4.167 2.804-6.198.68m.324 6.712l-4.623 3.28-.932-1.744 5.556-5.317c1.033-.11 3.698-.072 2.947 2.135l-.414 2.09c-1.583-1.316-.078 4.663-1.46 6.71l-2.164-.09-.476-6.147m0 .003l-.99 6.696c-.714 3.172-.33 5.727-.494 9.17l-1.172 9.073h3.52l1.108-9.397 1.636-9.398.49-6.62m-8.086 1.094l-3.714 2.783-1.112.12c-2.163 1.42.43 4.23 1.923 1.804v-.78l3.834-2.18m1.573 13.502l-1.755 1.527 1.406 1.733m-2.773-.66l2.443 2.816m-.582 5.34l6.104.032m-32.712-20.558l7.122.05m3.18-.086l17.962.085m.778-9.385l-.045-7.992-25.05-.293m-5.524 3.993v3.03m4.244 1.428l23.556-.06m-.303 3.014l.066-4.785h2.96m3.28 13.767s2.89 3.174 3.87 5.113c.315 1.696-4.94 4.82-4.94 4.82m-37.083-.12l-1.155-1.456 1.475-1.408m4.74-6.154s3.006 3.293 2.96 3.676c-.13 1.092-4.9 5.82-4.9 5.82M716.244 21.203l-1.143 1.444-3.77-3.193c-.614-.925-.79-.84-1.562-.167-1.566 3.133-2.062 3.873-2.393 5.604l-1.985-.18c.42-2.95 1.58-9.19 4.42-10.65 3.35.68 4.796 4.75 6.433 7.143zm-5.535-1.962l-1.79 4.89 4.726 6.322.38 6.85h-3.36l-.507-5.404c-1.24-1.24-2.784-2.307-2.784-2.307m1.546-5.46c-.248 2.974-3.11 8.59-3.11 8.59l-7.4 8.21-2.618-2.465 6.134-6.405 2.013-8.474c.807-3.393 4.148-10.04 7.19-9.36m-16.266 25.018l3.217 3.068 2.347.06m10.272-3.387h6.074m-1.672-16.34l3.67 2.285.72.572c.692.335 1.406.47 2.256-.54l-.12-1.054h-1.443l-.18.3-3.76-3.007m.617-13.2l-9.02-.06.06-1.863c.208-.845.753-1.24 1.442-1.445l3.49-.06c.575.165 1.065.48 1.32 1.203L714.217 8m-6.21-.082l-.01 2.276c1.003-.36 2.018-.603 2.912-2.223m3.307.03l-.02 1.513c-1.588 3.473-4.17 2.805-6.2.68m40.945-2.24l-9.022-.06.06-1.865c.21-.844.755-1.238 1.444-1.443l3.488-.06c.576.164 1.066.48 1.323 1.202l.06 2.226m-6.21-.083l-.01 2.276c1.005-.36 2.02-.603 2.914-2.223m3.306.03l-.022 1.512c-1.585 3.473-4.167 2.805-6.197.68m-.1 7.38l-5.04 1.28L734 17.06l6.452-3.7c1.033-.11 3.697-.074 2.946 2.134l-.66 2.603c-1.58-1.317-2.108 3.312-3.49 5.36l-2.164-.09 1.776-5.72m.474 11.2s.23.1 3.247 2.526l-.498 5.9h3.518l.837-6.96-5.593-6.585 1.896-5.63m-3.67-.083l-3.434 5.727-.776 8.346-6.134 6.375 2.645 2.436 6.406-7.158 3.068-10.014m-3.61-2.736l1.203.15M734 17.06l-3.548 3.61-1.112.12c-2.162 1.42.43 4.228 1.924 1.804v-.783l3.67-3.006m-6.993 20.502l3.07 3.006h2.436m8.545-3.355l6.105.03M708.92 24.13l8.197-.247m2.436-.037h15.994m2.804-9.362l-.102-7.93-23.935.083m-6.64-.122v9.4m0-1.05h1.125m2.746-.2l23.685.126m.007 1.356v-3.264h2.96M939.984 17.283l-1.14 1.443-4.522-3.197c-.345 1.327-2.272 4.386-3.13 6.01l-1.984-.18c.842-3.418 1.674-8.88 4.513-10.342 3.352.678 4.628 3.87 6.265 6.265zm-5.662-1.753l-1.5 6.198 2.993 8.722 1.234 10.206h-3.36l-1.36-8.76m-3.986-13.077l2.037.375m-8.87 15.784l3.802 3.65m8.41 3.71h6.073m-.953-23.615l3.236 3.085.722.572c.69.335 1.406.47 2.257-.54l-.122-1.054-1.458.093-3.49-3.596m1.52-11.294l-9.02-.06.06-1.865c.21-.843.755-1.24 1.443-1.443l3.488-.06c.576.164 1.066.48 1.323 1.203l.06 2.225m-6.21-.083l-.01 2.276c1.004-.36 2.018-.603 2.913-2.222m3.308.03l-.02 1.513c-1.59 3.472-4.17 2.803-6.2.68m40.947-2.288l-9.022-.06.06-1.865c.21-.844.756-1.238 1.444-1.443l3.487-.06c.576.164 1.066.48 1.323 1.202l.06 2.225m-6.21-.083l-.01 2.276c1.004-.36 2.018-.603 2.913-2.223m3.308.03l-.02 1.512c-1.59 3.473-4.17 2.805-6.2.68m.324 6.712l-4.7 2.484-.93-1.744 5.63-4.52c1.033-.11 3.697-.073 2.946 2.133l-.413 2.09c-1.582-1.317-.27 4.598-1.652 6.648l-2.165-.09-.283-6.083m1.474 16.654l1.75 8.288h3.518l-1.804-10.346-1.566-7.83.73-7.24m-8.255.267l-3.55 3.607-1.112.12c-2.16 1.422.432 4.23 1.925 1.805v-.782l3.67-3.007m-5.862 17.57l3.642 4.386m8.574 3.132l6.103.03m-39.83-20.558h9.104m2.437-.036l17.813.165m.928-9.466l-.047-7.99-24.173-.235m-6.4 3.935v3.03m4.242 1.426l23.557-.06m-.245 2.01l.01-3.78h2.958m-30.184 11l.087 9.487-7.568 5.24-2.615-2.466 6.713-3.85s-2.143-5.114-1.806-7.744c.55-4.28 2.984-12.14 6.027-11.462M966.85 22.48l-.61 8.973-8.462 5.19-2.152-2.85 6.835-3.842-.137-7.072 1.155-7.162M1163.341 17.778l-1.14 1.443-4.398-3.692c-.344 1.328-1.197 4.966-2.054 6.59l-1.985-.18c1.337-3.913.6-9.46 3.438-10.92 3.352.678 4.505 4.367 6.142 6.76zm-6.857 14.263l-2.66 8.333h-3.36l1.71-5.514m5.63-19.332l-.427 6.364-.736 2.88m-7.245 9.172l3.04 3.978m-1.94 4.135h6.074m5.628-22.836l2.906 3.292.722.57c.69.338 1.406.473 2.256-.54l-.12-1.052-1.584-.03-3.036-3.682m.71-12.314l-9.022-.06.06-1.865c.208-.846.753-1.24 1.442-1.445l3.488-.06c.577.164 1.067.48 1.324 1.203l.06 2.225m-6.21-.082l-.012 2.277c1.005-.36 2.02-.603 2.914-2.223m3.305.03l-.02 1.512c-1.587 3.473-4.17 2.805-6.2.68m41.882-1.763l-9.023-.06.058-1.864c.21-.845.756-1.24 1.444-1.445l3.488-.06c.578.165 1.068.48 1.325 1.204l.06 2.224m-6.212-.083l-.01 2.277c1.005-.36 2.02-.603 2.914-2.223m3.307.03l-.023 1.512c-1.585 3.473-4.167 2.805-6.197.68m.323 6.712l-4.623 3.28-.933-1.743 5.556-5.318c1.033-.108 3.697-.072 2.947 2.136l-.414 2.09c-1.583-1.318-.078 4.662-1.46 6.71l-2.165-.09-.476-6.148m4.098-.472l-.49 6.62-.234 1.97s2.736 4.856 3.366 5.86c.55.878-8.046 5.89-8.046 5.89m0 0l-1.35 5.075h3.517l1.988-7.82m-2.848-17.122s-.35 4.58-.99 6.697c-.888 2.942-.36 3.272 2.597 6.752l-4.848 3.944 2.15 2.85m-2.9-19.625l-3.714 2.782-1.112.12c-2.16 1.42.43 4.23 1.925 1.804v-.78l3.833-2.18m-1.55 16.102l3.31 4.138m-1.45 4.022l6.104.03m-32.712-20.558l7.122.05m3.18-.086l17.963.086m.778-9.385l-.045-7.993-25.05-.292m-5.524 3.992v3.03m4.24 1.428l23.556-.06m-.302 3.015l.067-4.786h2.96m-29.925 13.715s3.12 4.14 3.075 4.524c-.13 1.092-7.32 6.098-7.32 6.098l-1.857-2.214 5.116-4.187c-4.482-3.006-4.38-1.576-3.365-7.175.937-5.173 1.885-11.234 4.928-10.556m29.334 19.832l.55-3.424m-34.063 3.503l.894-3.724M1393.184 21.203l-1.143 1.443-3.77-3.193c-.614-.924-.788-.84-1.562-.165-1.566 3.132-2.062 3.87-2.393 5.603l-1.984-.18c.42-2.952 1.58-9.19 4.42-10.65 3.35.678 4.796 4.75 6.434 7.142zm-7.324 2.928l4.727 6.322.38 6.85h-3.36l-.507-5.405c-1.24-1.24-6.734-2.814-6.734-6.788m7.284-5.87l-1.79 4.89m-1.19 5.607l-1.92 2.983-7.4 8.21-2.615-2.466 6.134-6.406 2.012-8.473c.806-3.392 4.147-10.038 7.19-9.36m-16.268 25.02l3.217 3.067 2.347.06m10.272-3.387h6.073m-1.67-16.34l3.666 2.285.722.572c.69.335 1.406.47 2.256-.54l-.12-1.054h-1.443l-.18.3-3.76-3.007M1393.8 8l-9.02-.06.058-1.863c.21-.845.754-1.24 1.444-1.444l3.488-.06c.576.164 1.066.48 1.323 1.202l.06 2.225m-6.21-.083l-.01 2.276c1.003-.36 2.017-.602 2.912-2.222m3.306.03l-.02 1.513c-1.587 3.472-4.17 2.804-6.2.68m40.945-2.24l-9.02-.06.06-1.865c.208-.844.753-1.238 1.443-1.443l3.488-.06c.576.164 1.066.48 1.323 1.202l.058 2.225m-6.21-.082l-.01 2.276c1.003-.36 2.017-.602 2.912-2.223m3.307.03l-.022 1.514c-1.587 3.47-4.168 2.803-6.2.68m-.098 7.38l-5.04 1.277-.932-1.744 6.45-3.7c1.033-.108 3.698-.073 2.947 2.134l-.66 2.604c-1.58-1.317-2.108 3.312-3.488 5.36l-2.165-.09 1.774-5.72m1.983 6.08l1.896-5.63m-7.19 5.747c-.585 4.44 4.013 5.1 7.032 7.527l-.5 5.9h3.52l.836-6.96-5.593-6.584m-1.773-5.715l-3.433 5.728-.777 8.347-6.134 6.374 2.645 2.437 6.405-7.156 1.673-3.934m-2.213-8.816l1.202.15m-4.437-4.08l-3.548 3.607-1.112.12c-2.16 1.42.43 4.23 1.925 1.805v-.78l3.668-3.01m-6.99 20.503l3.067 3.006h2.436m8.546-3.356l6.105.03m-39.173-14.855l8.197-.25m2.435-.035h15.994m2.804-9.362l-.103-7.93-23.935.082m-6.64-.12v9.398m0-1.048h1.124m2.747-.202l23.685.127m.01 1.355V12.88h2.96M168.74 16.46v-4.2h2.958m-25.58 1.947l22.61-.037m-27.552.075h1.123m.073-8.352h-1.197v9.4m30.56-.146l.014-9.215h-23.358m4.66 17.292h15.997m-27.538.036h9.104m27.516 18.46l6.105.03M163.43 37.75l3.066 3.007 2.203.935m.347-18.468l1.298 7.307-6.134 6.373 2.647 2.437 6.405-7.157-.253-3.137m-4.247-13.43l-3.052 3.94-1.11.12c-2.163 1.42.43 4.228 1.923 1.804v-.78l3.173-3.34m1.037 3.008l1.202.15m.632-3.128l-3.248 5.263c-.195 2.593 2.456 5.084 5.474 8.797l3.426 8.584h3.518l-2.973-9.76-4.425-7.17 3.054-5.713m-2.765-.57l-4.934.54-.932-1.745 7.007-2.285c1.034-.107 3.7-.07 2.948 2.136l-1.323 1.925c-1.582-1.316-3.266 3.396-4.647 5.443l-2.165-.09 2.932-5.803m7.9-8.78l-.022 1.512c-1.586 3.47-4.168 2.803-6.198.68m.01-2.275l-.01 2.275c1.004-.36 2.018-.602 2.913-2.223m5.954.03l-9.022-.06.06-1.865c.21-.844.756-1.238 1.444-1.443l3.488-.06c.576.164 1.066.48 1.323 1.202l.06 2.225m-32.874.21l-.02 1.512c-1.587 3.473-4.17 2.805-6.2.68m.012-2.274l-.01 2.276c1.003-.36 2.018-.603 2.912-2.223m5.954.03l-9.022-.06.06-1.865c.21-.844.755-1.24 1.444-1.444l3.488-.06c.576.166 1.066.482 1.323 1.205l.06 2.225m.062 13.653l3.67 2.285.72.572c.692.335 1.406.47 2.256-.54l-.12-1.054h-1.444l-.18.3-3.76-3.007m-4.69 21.14h6.074m-19.79-3.098l3.218 3.068 2.015.72m-.147-18.283l1.982 7.307-6.135 6.406 2.617 2.466 6.585-7.428-.348-2.183m-3.408-10.266l1.293.21m5.863-2.93l-3.424 5.463 4.1 7.454 2.83 9.41h-3.36l-2.956-7.964c-1.058-2.428-6.084-5.73-5.72-9.218 2.66-4.445 5.244-9.93 8.287-9.25m5.114 6.976l-1.142 1.444-3.616-4.16c-.614-.922-1.332-.793-2.105-.12-1.102 1.462-1.956 3.157-3.06 5.24l-1.984-.18c2.082-3.58 3.71-7.988 6.548-9.45 3.352.68 3.724 4.834 5.36 7.226zM374.705 17.047l-1.143 1.444-4.52-3.196c-.346 1.328-2.273 4.387-3.13 6.01l-1.985-.18c2.08-3.582 1.673-8.88 4.512-10.34 3.35.677 4.627 3.87 6.265 6.263zm-5.663-1.752l-1.502 6.198.54 8.956.65 10.205h-3.36l-.776-8.76c-1.74-5.217-2.256-6.847-2.156-10.72 1.304-4.128 2.96-11.07 6.002-10.392m-4.632 7.967l1.292.21m-1.4 10.905l-4.44 3.04 2.616 2.466 2.962-1.898m-6.278.916l3.803 3.65m3.038 4.302h6.075m2.09-23.85l3.233 3.087.722.57c.69.336 1.406.47 2.256-.54l-.12-1.053-1.46.093-3.49-3.598m1.524-11.295l-9.022-.06.06-1.865c.21-.843.755-1.238 1.443-1.443l3.49-.06c.576.164 1.066.48 1.323 1.203l.06 2.225m-6.21-.083l-.01 2.276c1.004-.36 2.018-.602 2.913-2.223m3.307.03l-.022 1.512c-1.585 3.473-4.167 2.805-6.197.68m40.945-2.287l-9.02-.06.06-1.864c.208-.845.753-1.24 1.442-1.444l3.49-.06c.575.165 1.065.48 1.322 1.203l.06 2.224m-6.21-.082l-.01 2.276c1.003-.36 2.018-.604 2.912-2.223m3.308.03l-.022 1.513c-1.587 3.472-4.17 2.803-6.198.68m.32 6.713l-4.698 2.483-.932-1.745 5.63-4.52c1.036-.11 3.7-.072 2.95 2.135l-.415 2.09c-1.582-1.317-2.076 4.1-3.456 6.146l-2.164-.09 1.52-5.582m0 0l-2.784 5.493c-.512 3.858.856 7.036 1.762 11.097l1.088 8.584h3.52l-1.22-9.76-.8-9.15 2.533-6.738m-8.254.266l-3.548 3.608-1.113.12c-2.16 1.422.43 4.23 1.924 1.805v-.783l3.67-3.007m1.503 13.283l-3.68 2.322 2.15 2.85 2.46-1.648m-5.84-.172l3.64 4.385m2.966 4.302l6.105.03m-36.674-20.79h9.104m2.436-.037h15.995m2.745-9.3l-.045-7.992-24.174-.234m-6.4 3.934v3.03m4.242 1.425l23.557-.06m-.244 2.01l.01-3.782h2.957m2.307 13.882s3.32 3.478 3.036 5.576c-.15 1.097-2.306 2.392-2.306 2.392m-33.21-8.183s2.97 3.18 2.703 5.08c-.153 1.096-2.305 2.392-2.305 2.392M602.017 20.783l-1.14 1.443-3.773-3.193c-.614-.924-.79-.84-1.56-.165-1.568 3.132-2.064 3.872-2.394 5.604l-1.985-.18c.418-2.953 1.58-9.19 4.418-10.65 3.35.677 4.798 4.748 6.435 7.14zm-5.533-1.963l-1.79 4.89 4.727 6.322-3.752 5.363-2.368-1.488 2.138-3.256c-1.24-1.238-1.958-2.142-1.958-2.142m1.214-4.795c-.247 2.977-2.945 9.418-2.945 9.418l-4.754 7.546-2.617-2.466 4.812-6.902.524-8.143c.224-3.478 4.147-10.037 7.19-9.357m-13.46 25.186l3.217 3.068 2.346.06m2.833-7.188l3.926 2.81m5.106-15.514l3.667 2.285.722.57c.69.336 1.406.472 2.257-.54l-.122-1.053h-1.443l-.18.3-3.76-3.006m.617-13.2l-9.02-.06.06-1.866c.208-.843.755-1.238 1.443-1.443l3.488-.06c.576.165 1.066.48 1.323 1.203l.06 2.225m-6.21-.082l-.01 2.276c1.004-.36 2.018-.604 2.913-2.223m3.307.03l-.02 1.512c-1.588 3.47-4.17 2.802-6.2.68m40.945-2.243l-9.022-.06.06-1.864c.21-.844.756-1.24 1.444-1.444l3.488-.06c.577.165 1.066.48 1.324 1.203l.06 2.225m-6.21-.083l-.01 2.276c1.003-.358 2.017-.602 2.912-2.222m3.307.03l-.022 1.512c-1.587 3.473-4.168 2.805-6.2.68m-.098 7.38l-5.04 1.277-.93-1.744 6.448-3.7c1.033-.11 3.697-.073 2.947 2.135l-.66 2.603c-1.58-1.316-2.108 3.313-3.49 5.36l-2.164-.09 1.775-5.72m-.85 14.967l2.8 2.84 2.985-4.81-2.95-6.916 1.896-5.63m-3.668-.083l-3.434 5.728-.38 7.558-3.233 7.64 2.645 2.437 3.34-8.764 2.836-8.885m-3.61-2.736l1.204.15m-4.435-4.083l-3.55 3.61-1.112.12c-2.16 1.42.43 4.23 1.925 1.805v-.78l3.667-3.01m-3.69 20.98l3.066 3.007h1.502m1.566-8.668l3.45 3.542m-31.903-13.534l8.196-.248m2.437-.036h15.995m2.804-9.362l-.103-7.93-23.936.082m-6.638-.122v9.4m-.002-1.048h1.124m2.746-.203l23.685.128m.008 1.353v-3.263h2.96m1.695 16.31l-1.01 1.74M828.49 21.93l-1.142 1.444-3.77-3.194c-.614-.924-.79-.84-1.562-.165-1.566 3.132-2.062 3.873-2.392 5.604l-1.986-.18c.42-2.953 1.58-9.19 4.42-10.652 3.35.678 4.797 4.748 6.433 7.142zm-5.533-1.965l-1.79 4.89 3.9 7.644 1.37 6.85h-3.36l-1.497-5.404c-1.24-1.24-1.958-3.63-1.958-3.63m1.545-5.46c-.248 2.975-2.78 10.08-2.78 10.08l-6.572 5.232-2.617-2.467 6.3-4.916.69-8.474c.284-3.475 4.147-10.037 7.19-9.358m-15.112 23.532l3.217 3.067 1.85.887m9.777-1.402h6.074m-1.837-17.663l3.67 2.285.72.57c.692.337 1.407.472 2.256-.54l-.12-1.053h-1.443l-.18.3-3.76-3.005m.616-13.203l-9.022-.06.06-1.864c.21-.844.756-1.24 1.445-1.444l3.487-.06c.576.164 1.066.48 1.323 1.202l.06 2.225m-6.21-.082l-.01 2.276c1.003-.36 2.018-.602 2.912-2.222m3.308.03l-.02 1.512c-1.588 3.472-4.17 2.803-6.2.68m40.944-2.24l-9.02-.06.06-1.866c.208-.843.754-1.238 1.442-1.443l3.49-.06c.575.166 1.065.482 1.322 1.204l.06 2.225m-6.21-.083l-.01 2.276c1.003-.36 2.018-.603 2.912-2.223m3.308.03l-.022 1.512c-1.587 3.473-4.17 2.805-6.2.68m-.098 7.38l-5.04 1.28-.93-1.745 6.45-3.7c1.032-.11 3.697-.073 2.945 2.135l-.66 2.603c-1.58-1.318-2.108 3.312-3.488 5.36l-2.166-.09 1.774-5.72m.806 11.86l1.43 3.85.988 5.897h3.518l-1.146-6.958-3.61-8.57 1.894-5.63m-3.668-.083l-3.434 5.728-.446 7.52-6.3 4.888 2.646 2.437 6.902-5.34 2.405-9.518m-3.61-2.735l1.205.15m-4.438-4.082l-3.548 3.61-1.114.12c-2.16 1.42.432 4.228 1.925 1.803v-.78l3.67-3.008m-6.826 18.187l3.067 3.006 1.942.66m8.876.282l6.105.03m-39.175-16.84l8.195-.248m2.436-.036h15.994m2.804-9.363l-.103-7.928-23.935.083m-6.638-.123v9.4m0-1.048h1.123m2.746-.203l23.686.128m.01 1.355V13.61h2.958M1051.902 16.848l-1.143 1.443-4.52-3.196c-.346 1.328-2.273 4.386-3.132 6.01l-1.984-.18c.842-3.417 1.674-8.88 4.512-10.34 3.353.677 4.63 3.87 6.265 6.264zm-6.74 14.57l.53 9.27h-3.36l-.31-7.358m4.217-18.236l-1.503 6.198m-4.476-2.908l2.036.375m-7.053 14.958l3.803 3.65m3.32 5.004h6.072m2.32-24.082l3.237 3.085.72.57c.693.336 1.408.47 2.257-.54l-.12-1.053-1.458.093-3.49-3.597m1.52-11.294l-9.02-.06.06-1.865c.207-.844.753-1.24 1.442-1.444l3.488-.06c.576.165 1.066.48 1.323 1.204l.06 2.225m-6.21-.083l-.01 2.276c1.004-.36 2.018-.604 2.913-2.223m3.306.03l-.023 1.512c-1.587 3.472-4.168 2.803-6.198.68M1085.5 5.46l-9.02-.06.058-1.865c.21-.844.756-1.24 1.444-1.444l3.49-.06c.575.166 1.065.48 1.322 1.204l.058 2.224m-6.21-.08l-.01 2.275c1.004-.36 2.018-.604 2.913-2.223m3.308.03l-.023 1.512c-1.587 3.472-4.168 2.803-6.198.68m.323 6.713l-4.7 2.483-.93-1.744 5.63-4.52c1.034-.108 3.698-.072 2.947 2.135l-.414 2.088c-1.58-1.316-.27 4.6-1.65 6.648l-2.166-.09-.283-6.083m3.37 6.765l.728-7.24m-3.57 17.673l-.06 6.8h3.52l-.326-8.526m-7.818-15.68l-3.548 3.61-1.113.12c-2.16 1.42.432 4.23 1.925 1.804v-.782l3.67-3.007m-4.046 16.58l3.642 4.384m4.003 3.18l6.105.03m-37.077-19.613h9.104m2.436-.035l17.813.165m.926-9.466l-.045-7.99-24.174-.235m-6.398 3.934v3.03m4.24 1.425l23.558-.06m-.244 2.01l.01-3.78h2.96m-30.186 11l1.906 8.66-7.57 5.24-2.616-2.467 5.887-4.017s-3.134-4.12-2.797-6.75c.55-4.28 2.984-12.14 6.026-11.462m33.128 11.463l1.566 7.83-8.822 5.34-2.15-2.85 6.01-3.676-1.128-6.247 1.153-7.162M1279.018 21.086l-1.144 1.444-3.77-3.193c-.614-.924-.788-.84-1.563-.165-1.565 3.132-2.06 3.87-2.39 5.603l-1.985-.18c.418-2.952 1.58-9.19 4.418-10.65 3.35.68 4.797 4.75 6.435 7.142zm-7.323 2.928l4.025 6.788-3.127 6.5-2.66-2.104 2.3-3.884c-1.24-1.24-6.032-2.348-6.032-6.32m7.285-5.87l-1.79 4.89m-1.193 5.606l-1.918 2.983-4.71 8.326-2.617-2.466 3.447-6.523 2.013-8.472c.806-3.392 4.146-10.038 7.19-9.36m-13.582 25.137l3.217 3.067 1.41.06m4.195-5.725l3.503 2.806m5.223-16.927l3.67 2.286.72.57c.692.336 1.406.472 2.256-.54l-.12-1.053h-1.444l-.18.3-3.76-3.007m.618-13.2l-9.022-.06.06-1.865c.208-.844.754-1.24 1.442-1.444l3.49-.06c.575.165 1.065.48 1.322 1.203l.06 2.225m-6.21-.082l-.01 2.276c1.003-.36 2.018-.603 2.912-2.222m3.307.03l-.022 1.512c-1.587 3.472-4.168 2.803-6.198.68m40.944-2.242l-9.022-.06.06-1.864c.208-.844.753-1.24 1.443-1.444l3.49-.06c.575.164 1.065.48 1.322 1.203l.06 2.224m-6.21-.083l-.01 2.277c1.003-.36 2.018-.603 2.912-2.223m3.31.03l-.024 1.512c-1.587 3.473-4.17 2.805-6.198.68m-.102 7.38l-5.04 1.278-.93-1.744 6.45-3.7c1.033-.11 3.696-.073 2.946 2.135l-.66 2.603c-1.58-1.318-2.108 3.31-3.487 5.36l-2.167-.09 1.776-5.722m1.98 6.083l1.897-5.632m-7.19 5.75c.817 4.44 3.08 4.748 6.097 7.76l-2.603 4.496 3.17 1.168 2.705-5.79-4.074-7.753m-1.774-5.714l-3.433 5.727-.776 8.346-3.095 6.257 2.645 2.437 3.367-7.04 1.673-3.936m-2.214-8.815l1.203.15m-4.436-4.082l-3.548 3.61-1.113.12c-2.163 1.42.43 4.23 1.923 1.805v-.783l3.67-3.007m-3.952 20.384l3.068 3.006h1.5m3.403-4.407l3.886 1.43m-33.915-15.09l8.197-.25m2.437-.035h15.993m2.806-9.362l-.104-7.93-23.936.084m-6.64-.122v9.4m0-1.048h1.125m2.744-.203l23.685.127m.01 1.356v-3.264h2.958" 
fill="none" stroke="#fff" stroke-width="1.4"/>
</svg>